<svg width="115" height="74" fill="none" xmlns="http://www.w3.org/2000/svg"><path d="M106.266 73.406h-5.133l1.758-13.219h6.515l-3.14 13.22zM47 67H33.053V39.191H13.947V67H0V1h13.947v26.802h19.106V1H47v66zm23.547-40.262c1.926 0 3.553-.554 4.883-1.662 1.35-1.127 2.025-2.542 2.025-4.243v-2.315l-6.73.415c-1.627.12-2.887.525-3.78 1.217-.874.693-1.31 1.603-1.31 2.73 0 1.187.446 2.127 1.34 2.82.893.692 2.084 1.038 3.572 1.038zM67.69 33c-3.077 0-5.627-.9-7.652-2.7C58.012 28.5 57 26.183 57 23.354c0-2.888 1.072-5.154 3.216-6.796 2.143-1.642 5.21-2.582 9.2-2.819l8.039-.475v-2.107c0-1.464-.486-2.611-1.46-3.442-.952-.831-2.252-1.247-3.9-1.247-1.588 0-2.888.357-3.9 1.069-.992.712-1.598 1.672-1.816 2.878h-7.95c.159-3.126 1.499-5.638 4.02-7.537C64.969.959 68.314 0 72.483 0c4.088 0 7.364.97 9.825 2.908C84.769 4.848 86 7.42 86 10.624v21.872h-8.396v-4.867h-.179c-.873 1.662-2.203 2.977-3.99 3.947A12.059 12.059 0 0167.69 33zm17.136 31.632C82.043 67.544 78.268 69 73.5 69c-4.768 0-8.543-1.466-11.326-4.398C59.391 61.67 58 57.626 58 52.47c0-5.096 1.401-9.11 4.203-12.042C65.025 37.476 68.791 36 73.5 36c4.729 0 8.494 1.476 11.297 4.428C87.599 43.36 89 47.373 89 52.47c0 5.175-1.391 9.229-4.174 12.16zM73.5 62.418c2.102 0 3.766-.866 4.992-2.598 1.225-1.731 1.838-4.172 1.838-7.32 0-3.11-.612-5.54-1.838-7.29-1.227-1.752-2.89-2.628-4.992-2.628s-3.775.876-5.02 2.627c-1.227 1.752-1.84 4.182-1.84 7.291 0 3.148.613 5.589 1.84 7.32 1.225 1.732 2.899 2.598 5.02 2.598zM115 19H96v-7h19v7z" fill="#A5B6D9"/></svg>