<svg width="70" height="70" fill="none" xmlns="http://www.w3.org/2000/svg"><path d="M53.209 29.304c.64 1.219.854 2.518.835 3.863h-9.24c.56-3.617 2.047-5.822 4.997-5.756 1.716 0 2.852.632 3.408 1.893zm-34 4.923h7.875l-4.09-15.448c-.513 3.494-2.313 9.447-3.785 15.448zM70 0v70H0V0h70zM37.517 49.977L26.691 13.478H19.21c0 .81-.052 1.692-.152 2.045a3.58 3.58 0 00-.151.984l-9.563 33.47H15l2.693-10.298h10.602l2.964 10.298h6.257zM59.646 33.47c0-2.423-.708-4.846-2.12-7.27-1.416-2.422-3.938-3.634-7.573-3.634-3.536 0-6.285 1.39-8.254 4.165-3.714 4.898-4.101 14.149-.151 19.537 1.866 2.778 4.971 4.165 9.314 4.165 2.377-.006 4.645-.293 6.663-1.212.236-.243.297-.358.303-.757v-4.09c-.007-.283-.162-.295-.454-.302-2.955 1.444-7.25 1.393-9.424.14-2.022-1.166-3.21-3.603-3.146-6.501h8.632c1.515 0 2.726-.024 3.635-.076.909-.05 1.564-.125 1.969-.227.1 0 .175-.024.227-.076l.227-.227c0-.303.024-.78.076-1.439.05-.655.076-1.386.076-2.196z" fill="#313B57"/></svg>