<svg width="169" height="169" fill="none" xmlns="http://www.w3.org/2000/svg"><rect width="169" height="169" rx="3" fill="#F5F7FB"/><path d="M114.098 13.653h9.685c3.821 0 6.791 1.095 8.912 3.287 2.121 2.191 3.182 5.291 3.182 9.299 0 4.02-1.066 7.154-3.199 9.404-2.121 2.25-5.086 3.375-8.895 3.375h-9.685V13.653zm5.308 4.377v16.593h3.744c2.379 0 4.19-.708 5.432-2.126 1.254-1.43 1.881-3.51 1.881-6.24 0-2.65-.633-4.682-1.899-6.1-1.265-1.418-3.07-2.127-5.414-2.127h-3.744zm36.703 16.593v4.395h-16.804V13.653h16.804v4.377h-11.496v6.117h10.846v4.078h-10.846v6.398h11.496z" fill="#A0A4AF"/><path d="M31.473 99.435h7.456c3.144 0 5.595.923 7.353 2.768 1.768 1.846 2.652 4.434 2.652 7.764 0 3.34-.88 5.942-2.637 7.808-1.758 1.865-4.214 2.797-7.368 2.797h-7.456V99.435zm3.28 2.827v15.469h3.868c2.246 0 3.965-.664 5.156-1.993 1.201-1.328 1.802-3.242 1.802-5.742 0-2.49-.6-4.399-1.802-5.727-1.2-1.338-2.92-2.007-5.156-2.007h-3.867zm26.06 6.284c-.693-.742-1.586-1.113-2.68-1.113s-2.002.376-2.725 1.128c-.723.742-1.123 1.704-1.201 2.885h7.705c-.039-1.191-.405-2.158-1.099-2.9zm1.084 7.5H64.9c-.224 1.416-.947 2.573-2.168 3.472-1.22.898-2.71 1.347-4.467 1.347-2.256 0-4.034-.708-5.332-2.124-1.29-1.425-1.934-3.359-1.934-5.8 0-2.422.645-4.371 1.934-5.845 1.298-1.475 3.032-2.212 5.2-2.212 2.129 0 3.818.698 5.068 2.095 1.25 1.386 1.875 3.252 1.875 5.595v1.084H54.192v.191c0 1.347.376 2.427 1.128 3.237.752.811 1.758 1.216 3.018 1.216.889 0 1.65-.205 2.285-.615.635-.411 1.06-.957 1.275-1.641zm18.853-10.884v15.41h-3.032v-2.607h-.074c-.888 1.924-2.48 2.886-4.775 2.886-1.68 0-3.003-.508-3.97-1.524-.957-1.025-1.435-2.422-1.435-4.189v-9.976h3.164v9.361c0 1.181.278 2.08.835 2.695.556.605 1.377.908 2.46.908 1.134 0 2.027-.361 2.681-1.084.655-.723.982-1.689.982-2.9v-8.98h3.164zm4.058-3.647h3.178v3.647h2.93v2.505h-2.93v8.496c0 .664.152 1.153.454 1.465.303.313.777.469 1.421.469.47 0 .816-.025 1.04-.073v2.504c-.39.098-.976.147-1.757.147-1.553 0-2.666-.317-3.34-.952-.664-.645-.996-1.714-.996-3.208v-8.848h-2.242v-2.505h2.242v-3.647zm8.437 8.012c0-1.376.557-2.495 1.67-3.354s2.568-1.289 4.365-1.289c1.709 0 3.111.434 4.204 1.304 1.104.859 1.68 1.977 1.729 3.354h-2.974c-.078-.703-.385-1.255-.923-1.655-.537-.401-1.245-.601-2.124-.601-.859 0-1.552.191-2.08.572-.517.38-.776.874-.776 1.479 0 .938.786 1.602 2.358 1.992l2.593.601c1.553.371 2.651.879 3.296 1.523.654.635.981 1.524.981 2.666 0 1.407-.595 2.549-1.787 3.428-1.181.879-2.719 1.318-4.614 1.318-1.807 0-3.281-.429-4.424-1.289-1.133-.859-1.762-2.002-1.89-3.427h3.135c.127.742.474 1.313 1.04 1.713.567.391 1.329.586 2.286.586.947 0 1.694-.18 2.241-.542.556-.371.835-.869.835-1.494 0-.498-.166-.893-.498-1.186-.332-.293-.899-.542-1.7-.747l-2.753-.674c-2.793-.674-4.19-2.1-4.19-4.278zm28.008.938h-3.018c-.166-.869-.566-1.577-1.201-2.124-.625-.547-1.43-.82-2.417-.82-1.23 0-2.217.483-2.959 1.45-.732.957-1.098 2.256-1.098 3.896 0 1.67.366 2.979 1.098 3.926.742.947 1.738 1.421 2.988 1.421.967 0 1.758-.249 2.374-.747.625-.508 1.03-1.211 1.215-2.109h3.047c-.166 1.65-.859 2.983-2.08 3.999-1.211 1.005-2.739 1.508-4.585 1.508-2.217 0-3.984-.713-5.303-2.138-1.318-1.436-1.977-3.389-1.977-5.86 0-2.441.659-4.38 1.977-5.815 1.319-1.445 3.077-2.168 5.274-2.168 1.914 0 3.467.537 4.658 1.611 1.192 1.065 1.86 2.388 2.007 3.97zm2.388 10.107V99.435h3.134v8.305h.074c.429-.908 1.059-1.606 1.889-2.094.83-.498 1.826-.747 2.989-.747 1.679 0 2.998.517 3.955 1.552.966 1.035 1.45 2.432 1.45 4.19v9.931h-3.179v-9.316c0-1.152-.288-2.046-.864-2.681-.567-.634-1.401-.952-2.505-.952-1.162 0-2.085.371-2.769 1.113-.673.733-1.01 1.709-1.01 2.93v8.906h-3.164z" fill="#000"/><path d="M50.509 142.716h1.59c.077.685.41 1.236 1.003 1.652.597.416 1.35.624 2.258.624.856 0 1.562-.202 2.118-.607.563-.41.844-.925.844-1.546a1.68 1.68 0 00-.589-1.319c-.386-.345-1.007-.63-1.863-.852l-1.626-.422c-1.172-.299-2.027-.715-2.566-1.248-.54-.539-.809-1.239-.809-2.101 0-1.054.416-1.916 1.248-2.584.838-.668 1.916-1.002 3.235-1.002 1.26 0 2.302.34 3.129 1.02.826.674 1.256 1.541 1.291 2.601H58.19c-.07-.679-.363-1.215-.878-1.608-.516-.393-1.187-.589-2.013-.589-.82 0-1.491.193-2.013.58-.516.387-.773.891-.773 1.512 0 .48.187.876.562 1.186.381.305 1.002.569 1.863.791l1.328.352c1.312.328 2.256.765 2.83 1.31.574.544.861 1.271.861 2.179 0 1.16-.428 2.08-1.283 2.76-.85.674-2.004 1.011-3.463 1.011-1.348 0-2.45-.337-3.305-1.011-.855-.674-1.321-1.57-1.397-2.689zm14.722-4.483c-.71 0-1.298.246-1.767.738-.463.487-.718 1.114-.765 1.881h4.966c-.018-.773-.249-1.403-.694-1.889-.446-.487-1.026-.73-1.74-.73zm2.399 5.353h1.503c-.135.808-.557 1.473-1.266 1.995-.703.521-1.55.782-2.54.782-1.306 0-2.335-.422-3.085-1.266-.75-.843-1.125-1.986-1.125-3.427 0-1.43.375-2.581 1.125-3.454.756-.873 1.76-1.31 3.015-1.31 1.23 0 2.203.413 2.918 1.239.715.826 1.072 1.934 1.072 3.323v.58H62.69v.087c0 .879.24 1.583.721 2.11.48.527 1.131.791 1.951.791.575 0 1.064-.132 1.468-.396.404-.263.671-.615.8-1.054zm3.243 2.619v-12.683h1.53v5.001h.034a2.774 2.774 0 011.126-1.195c.498-.281 1.09-.422 1.775-.422.996 0 1.781.308 2.355.923.575.615.862 1.438.862 2.47v5.906h-1.53v-5.625c0-.738-.184-1.31-.553-1.714-.364-.404-.9-.606-1.609-.606-.756 0-1.356.237-1.802.711-.439.475-.659 1.111-.659 1.908v5.326h-1.529zm9.624 0v-9.141h1.442v1.494h.035c.152-.509.424-.911.817-1.204a2.264 2.264 0 011.398-.448c.123 0 .328.021.615.062v1.485c-.164-.059-.437-.088-.818-.088-.592 0-1.066.196-1.424.589-.357.392-.536.911-.536 1.556v5.695h-1.529zm20.18-5.247c0 1.717-.475 3.055-1.424 4.016-.943.961-2.262 1.442-3.955 1.442-1.77 0-3.182-.598-4.237-1.793-1.048-1.201-1.573-2.81-1.573-4.825 0-1.981.525-3.557 1.573-4.729 1.05-1.172 2.461-1.758 4.237-1.758 1.37 0 2.537.378 3.498 1.134.967.75 1.567 1.755 1.802 3.015h-1.662c-.263-.856-.714-1.518-1.353-1.987-.633-.468-1.394-.703-2.285-.703-1.307 0-2.332.446-3.076 1.336-.739.885-1.108 2.113-1.108 3.683 0 1.594.375 2.853 1.125 3.779.75.926 1.77 1.389 3.059 1.389 1.125 0 2.039-.331 2.742-.993.703-.668 1.055-1.533 1.055-2.593v-.229h-3.577v-1.388h5.159v1.204zm9.299-3.894v9.141h-1.451v-1.486h-.035c-.568 1.096-1.535 1.644-2.9 1.644-.99 0-1.767-.299-2.329-.896-.557-.604-.835-1.427-.835-2.47v-5.933h1.529v5.66c0 1.524.703 2.286 2.109 2.286.739 0 1.319-.232 1.741-.695.427-.469.641-1.096.641-1.881v-5.37h1.53zm2.478-2.206h1.529v2.206h1.776v1.257h-1.776v5.432c0 .416.091.723.273.923.182.193.469.29.861.29.246 0 .457-.015.633-.044v1.283c-.199.047-.521.07-.967.07-.838 0-1.435-.187-1.793-.562-.357-.375-.536-1.002-.536-1.881v-5.511h-1.362v-1.257h1.362v-2.206z" fill="#313B57"/></svg>