<svg width="70" height="70" fill="none" xmlns="http://www.w3.org/2000/svg"><path fill-rule="evenodd" clip-rule="evenodd" d="M3 0a3 3 0 00-3 3v64a3 3 0 003 3h64a3 3 0 003-3V3a3 3 0 00-3-3H3zm33.96 13.831l19.21 19.21a2.836 2.836 0 010 4.009L37.049 56.17a2.834 2.834 0 01-4.008 0l-19.21-19.21a2.834 2.834 0 010-4.008L27.002 19.78l4.988 4.99a3.37 3.37 0 001.83 4.421v12.08a3.372 3.372 0 102.773.098V29.402l4.548 4.548a3.373 3.373 0 005.504 3.667 3.37 3.37 0 00-3.484-5.568l-4.877-4.877a3.363 3.363 0 00-4.261-4.29l-5.06-5.06 3.988-3.99a2.834 2.834 0 014.007 0z" fill="#313B57"/></svg>