<svg width="70" height="70" fill="none" xmlns="http://www.w3.org/2000/svg"><path d="M69.475 0H.525A.525.525 0 000 .525v68.95c0 .29.235.525.525.525h68.95c.29 0 .525-.235.525-.525V.525A.525.525 0 0069.475 0z" fill="#313B57"/><path d="M18.244 14.286L11.7 17.47v.1l6.545 3.085v2.905L8.75 18.678v-2.246l9.494-5.051v2.905zm8.587 12.139h-2.69l5.111-17.5h2.68l-5.1 17.5zm6.964-12.149V11.38l9.494 5.041v2.256l-9.494 4.872v-2.905l6.535-3.075v-.1l-6.535-3.194zm8.898 37.519c.946.103 1.666.388 2.16.857.496.461.743 1.087.743 1.877v2.252c0 .776.144 1.325.432 1.647.296.33.794.494 1.496.494h.488v2.328h-.82c-1.64 0-2.83-.33-3.568-.988-.739-.66-1.108-1.713-1.108-3.163v-1.713c0-.805-.2-1.376-.599-1.713-.399-.344-1.07-.52-2.017-.527v-3.053c.946-.007 1.618-.18 2.017-.516.4-.344.599-.919.599-1.724v-1.757c0-1.435.369-2.474 1.108-3.119.738-.651 1.928-.977 3.568-.977h.82v2.328h-.488c-.702 0-1.2.165-1.496.494-.288.322-.432.871-.432 1.647v2.24c0 .791-.247 1.42-.742 1.89-.495.46-1.215.742-2.161.845v.351zm15.692 0v-.351c-.946-.103-1.666-.385-2.161-.846-.495-.468-.743-1.098-.743-1.889v-2.24c0-.776-.148-1.325-.443-1.647-.288-.33-.783-.494-1.485-.494h-.488V42h.82c1.648 0 2.84.326 3.58.977.738.645 1.108 1.684 1.108 3.12v1.756c0 .805.196 1.38.587 1.724.4.337 1.071.509 2.017.516v3.053c-.953.007-1.625.18-2.017.516-.391.337-.587.908-.587 1.713v1.68c0 1.464-.373 2.53-1.12 3.196-.738.666-1.927.999-3.568.999h-.82v-2.328h.488c.694 0 1.19-.165 1.485-.494.295-.322.443-.868.443-1.636V54.54c0-.797.248-1.427.743-1.888.502-.469 1.222-.754 2.16-.857z" fill="#fff"/></svg>