<svg width="70" height="70" fill="none" xmlns="http://www.w3.org/2000/svg"><path d="M69.475 0H.525A.525.525 0 000 .525v68.95c0 .29.235.525.525.525h68.95c.29 0 .525-.235.525-.525V.525A.525.525 0 0069.475 0z" fill="#313B57"/><path d="M28.35 54.871h4.107c.019.823.271 1.482.757 1.977.495.495 1.14.743 1.935.743.887 0 1.56-.266 2.018-.799.468-.533.701-1.308.701-2.327V40.6h4.234v13.892c0 2.14-.608 3.804-1.822 4.99-1.215 1.178-2.912 1.767-5.09 1.767-2.065 0-3.724-.58-4.976-1.738-1.243-1.16-1.864-2.706-1.864-4.64zm16.528.197h4.08c.093.822.527 1.49 1.303 2.004.785.505 1.743.758 2.874.758 1.121 0 2.033-.239 2.734-.716.71-.486 1.065-1.102 1.065-1.85 0-.654-.262-1.182-.785-1.584-.523-.402-1.397-.739-2.621-1.01l-2.636-.574c-3.71-.795-5.566-2.678-5.566-5.65 0-1.85.72-3.346 2.16-4.486 1.448-1.14 3.308-1.71 5.579-1.71 2.336 0 4.2.556 5.593 1.668 1.393 1.103 2.108 2.575 2.145 4.416h-3.967c-.066-.85-.444-1.519-1.136-2.005-.682-.495-1.556-.743-2.621-.743-1.047 0-1.893.23-2.538.687-.635.458-.953 1.061-.953 1.809 0 .617.257 1.117.771 1.5.523.383 1.37.71 2.538.981l2.453.519c2.028.43 3.505 1.103 4.43 2.018.925.907 1.388 2.131 1.388 3.673 0 1.963-.739 3.524-2.215 4.682-1.477 1.15-3.472 1.725-5.986 1.725-2.44 0-4.383-.542-5.832-1.626-1.44-1.094-2.192-2.589-2.257-4.486z" fill="#fff"/></svg>