<svg width="70" height="70" fill="none" xmlns="http://www.w3.org/2000/svg"><path d="M69.475 0H.525A.525.525 0 000 .525v68.95c0 .29.235.525.525.525h68.95c.29 0 .525-.235.525-.525V.525A.525.525 0 0069.475 0z" fill="#313B57"/><path d="M30.695 48.076c1.46 0 2.61.526 3.447 1.578.844 1.052 1.267 2.505 1.267 4.359 0 1.846-.416 3.3-1.246 4.359-.83 1.052-1.968 1.578-3.414 1.578-.823 0-1.55-.186-2.18-.559a3.54 3.54 0 01-1.395-1.556h-.064v5.69h-3.135V48.258h3.092v2.008h.064a3.648 3.648 0 011.396-1.61c.622-.387 1.345-.58 2.168-.58zm-1.052 9.35c.78 0 1.4-.307 1.858-.922.465-.616.698-1.446.698-2.491 0-1.045-.233-1.876-.698-2.491-.458-.623-1.078-.934-1.858-.934-.766 0-1.381.315-1.846.945-.466.623-.698 1.45-.698 2.48 0 1.038.229 1.868.687 2.49.465.616 1.084.924 1.857.924zm7.462 2.341V44.275h3.082v6.034h.064c.308-.73.77-1.288 1.385-1.675.623-.394 1.367-.59 2.233-.59 1.267 0 2.251.386 2.953 1.159.708.766 1.063 1.818 1.063 3.156v7.408H44.75v-6.742c0-.751-.187-1.335-.559-1.75-.365-.422-.898-.633-1.6-.633-.73 0-1.306.236-1.728.708-.415.465-.623 1.08-.623 1.847v6.57h-3.135zm19.509-11.691c1.46 0 2.608.526 3.446 1.578.844 1.052 1.267 2.505 1.267 4.359 0 1.846-.416 3.3-1.246 4.359-.83 1.052-1.968 1.578-3.414 1.578-.823 0-1.55-.186-2.18-.559a3.542 3.542 0 01-1.395-1.556h-.064v5.69h-3.135V48.258h3.092v2.008h.064a3.65 3.65 0 011.396-1.61c.623-.387 1.345-.58 2.169-.58zm-1.053 9.35c.78 0 1.4-.307 1.858-.922.465-.616.698-1.446.698-2.491 0-1.045-.233-1.876-.698-2.491-.458-.623-1.077-.934-1.858-.934-.765 0-1.381.315-1.846.945-.466.623-.698 1.45-.698 2.48 0 1.038.229 1.868.687 2.49.465.616 1.084.924 1.857.924z" fill="#fff"/></svg>