<svg width="70" height="70" fill="none" xmlns="http://www.w3.org/2000/svg"><path fill-rule="evenodd" clip-rule="evenodd" d="M70 70H0V0h70v70zM55.564 29.67v-5.43c-.894-.397-6.014-1.862-10.06-.318-5.827 2.223-5.617 8.92-3.406 11.55 2.865 3.405 9.992 4.675 8.825 8.018-.604 1.731-3.423 2.033-5.908 1.451-2.315-.54-4.328-1.912-4.328-1.912v5.749s1.99 1.109 4.431 1.373c3.13.338 7.053-.3 9.019-2.048 3.499-3.11 4.036-9.999-2.594-13.198-5.518-2.662-5.427-3.422-5.388-4.787.052-1.829 3.891-2.955 9.409-.448zM25.81 14.434c4.59.16 11.337 2.275 11.337 11.297s-8.254 11.982-15.786 11.337v12.774h-5.61V14.554s5.468-.28 10.059-.12zm1.457 17.046c2.42-.883 3.992-2.781 3.992-5.729 0-3.126-1.6-5.242-4.048-5.84-2.65-.648-5.85-.266-5.85-.266v12.31s4.43.063 5.906-.475z" fill="#313B57"/></svg>