<svg width="70" height="70" fill="none" xmlns="http://www.w3.org/2000/svg"><path d="M0 0v70h70V0H0zm29.741 50.248L23.27 36.91l-6.245 13.306H10.94l8.956-17.062-8.66-17.254h6.317l6.13 13.115 6.08-13.147h5.93l-8.667 16.744 9.178 17.636h-6.463zm27.749-1.4a18.96 18.96 0 01-8.15 1.846c-6.906.03-11.84-4.234-11.84-12.894.225-8.87 6.135-13.819 14.42-13.147V15.9h5.666v29.477c.012 3.516.4 3.178-.095 3.47zm-5.571-19.196V45.41c-5.593 1.452-8.685-1.952-8.658-7.862.02-6.062 4.003-9.207 8.658-7.895z" fill="#313B57"/></svg>