<svg width="115" height="74" viewBox="0 0 115 74" fill="none" xmlns="http://www.w3.org/2000/svg">
<path d="M106.266 73.4062H101.133L102.891 60.1875H109.406L106.266 73.4062Z" fill="#A5B6D9"/>
<path d="M47 67H33.0528V39.1913H13.9472V67H0V1H13.9472V27.8025H33.0528V1H47V67Z" fill="#A5B6D9"/>
<path d="M70.5472 26.7383C72.4726 26.7383 74.1003 26.1844 75.4302 25.0764C76.7799 23.9487 77.4548 22.5342 77.4548 20.8327V18.518L70.7259 18.9335C69.0982 19.0522 67.8378 19.4577 66.9446 20.1502C66.0712 20.8426 65.6345 21.7527 65.6345 22.8804C65.6345 24.0674 66.0811 25.0072 66.9743 25.6996C67.8676 26.3921 69.0585 26.7383 70.5472 26.7383ZM67.6889 33C64.6123 33 62.0616 32.0998 60.037 30.2995C58.0123 28.4991 57 26.1844 57 23.3552C57 20.4667 58.0719 18.2014 60.2156 16.5594C62.3593 14.9173 65.4261 13.9775 69.4158 13.7401L77.4548 13.2653V11.1583C77.4548 9.69424 76.9685 8.54676 75.9959 7.71583C75.0431 6.88489 73.743 6.46942 72.0955 6.46942C70.5075 6.46942 69.2074 6.82554 68.1951 7.53777C67.2026 8.25 66.5972 9.20953 66.3788 10.4164H58.4292C58.588 7.29047 59.9278 4.77788 62.4487 2.8786C64.9695 0.959532 68.3142 0 72.4825 0C76.5715 0 79.8467 0.969424 82.308 2.90827C84.7693 4.84712 86 7.41906 86 10.6241V32.4955H77.6037V27.6286H77.4251C76.5517 29.2905 75.2218 30.6061 73.4353 31.5755C71.6489 32.5252 69.7334 33 67.6889 33Z" fill="#A5B6D9"/>
<path d="M84.8258 64.6315C82.043 67.5438 78.2677 69 73.5 69C68.7323 69 64.957 67.534 62.1742 64.602C59.3914 61.6699 58 57.6261 58 52.4705C58 47.3739 59.4011 43.3596 62.2034 40.4275C65.0251 37.4758 68.7906 36 73.5 36C78.2288 36 81.9944 37.4758 84.7966 40.4275C87.5989 43.3596 89 47.3739 89 52.4705C89 57.6458 87.6086 61.6995 84.8258 64.6315ZM73.5 62.4177C75.6017 62.4177 77.2655 61.5519 78.4915 59.8202C79.7175 58.0886 80.3305 55.6485 80.3305 52.5C80.3305 49.3909 79.7175 46.9606 78.4915 45.2093C77.2655 43.458 75.6017 42.5823 73.5 42.5823C71.3983 42.5823 69.7247 43.458 68.4793 45.2093C67.2533 46.9606 66.6403 49.3909 66.6403 52.5C66.6403 55.6485 67.2533 58.0886 68.4793 59.8202C69.7053 61.5519 71.3788 62.4177 73.5 62.4177Z" fill="#A5B6D9"/>
<path d="M115 19H96V12H115V19Z" fill="#A5B6D9"/>
</svg>
