<svg width="171" height="171" fill="none" xmlns="http://www.w3.org/2000/svg"><rect width="171" height="171" rx="3" fill="#F5F7FB"/><path d="M104.414 33.605V38H87.609V12.635h16.805v4.377H92.918v6.117h10.846v4.078H92.918v6.398h11.496zM113.326 38h-5.08V12.635h4.43l11.847 16.523h.141V12.635h5.08V38h-4.394l-11.866-16.611h-.158V38zm43.33-10.652c0 3.457-.996 6.17-2.988 8.138-1.98 1.97-4.734 2.954-8.262 2.954-3.797 0-6.785-1.172-8.965-3.516-2.168-2.344-3.252-5.572-3.252-9.686 0-4.054 1.079-7.242 3.235-9.562 2.168-2.32 5.121-3.48 8.859-3.48 2.953 0 5.455.796 7.506 2.39s3.264 3.674 3.639 6.24h-5.326c-.387-1.324-1.096-2.361-2.127-3.111-1.02-.75-2.245-1.125-3.674-1.125-2.098 0-3.739.756-4.922 2.267-1.184 1.512-1.775 3.616-1.775 6.311 0 2.742.615 4.904 1.845 6.486 1.242 1.582 2.924 2.373 5.045 2.373 1.735 0 3.147-.486 4.236-1.459 1.102-.972 1.682-2.244 1.741-3.814l.017-.404h-5.519v-3.868h10.687v2.866z" fill="#A0A4AF"/><path d="M45.24 118.779v2.841H31.82v-21.137h13.42v2.827H35.103v6.182h9.594v2.724h-9.595v6.563H45.24zm2.987 2.841v-15.41h3.018v2.578h.073a4.824 4.824 0 011.875-2.094c.82-.498 1.812-.747 2.974-.747 1.69 0 3.003.507 3.94 1.523.938 1.006 1.407 2.398 1.407 4.175v9.975h-3.179v-9.36c0-1.172-.278-2.06-.835-2.666-.547-.615-1.362-.923-2.446-.923-1.114 0-2.002.362-2.666 1.084-.664.723-.996 1.685-.996 2.886v8.979h-3.165zm22.91-2.563c1.24 0 2.232-.469 2.974-1.406.752-.938 1.128-2.198 1.128-3.78 0-1.582-.376-2.851-1.128-3.808-.742-.957-1.733-1.436-2.973-1.436-1.221 0-2.198.474-2.93 1.421-.723.947-1.084 2.222-1.084 3.823 0 1.602.361 2.867 1.084 3.794.732.928 1.709 1.392 2.93 1.392zm.03 8.364c-1.797 0-3.32-.429-4.57-1.289-1.24-.859-1.958-1.963-2.154-3.31h3.18c.224.644.663 1.162 1.317 1.552.665.391 1.446.586 2.344.586 1.22 0 2.183-.322 2.886-.966.703-.635 1.055-1.485 1.055-2.549v-2.534h-.059c-.44.849-1.094 1.523-1.963 2.021-.86.498-1.83.747-2.915.747-1.943 0-3.496-.703-4.658-2.109-1.162-1.416-1.743-3.321-1.743-5.713 0-2.422.58-4.341 1.743-5.757 1.172-1.426 2.749-2.139 4.731-2.139 1.084 0 2.056.259 2.915.777a5.183 5.183 0 011.993 2.109h.058v-2.637h3.076v15.132c0 1.836-.659 3.306-1.977 4.409-1.309 1.114-3.062 1.67-5.259 1.67zm10.488-5.801v-21.137h3.164v21.137h-3.164zm6.519 0v-15.41h3.164v15.41h-3.164zm2.886-18.193a1.8 1.8 0 01-1.304.527 1.8 1.8 0 01-1.304-.527 1.735 1.735 0 01-.527-1.274c0-.508.176-.938.527-1.289a1.801 1.801 0 011.304-.528c.517 0 .952.176 1.304.528.36.351.542.781.542 1.289 0 .498-.181.923-.542 1.274zm3.237 7.149c0-1.377.556-2.496 1.67-3.355 1.113-.859 2.568-1.289 4.365-1.289 1.709 0 3.11.435 4.204 1.304 1.104.859 1.68 1.977 1.729 3.354h-2.974c-.078-.703-.386-1.255-.923-1.655-.537-.4-1.245-.601-2.124-.601-.86 0-1.553.191-2.08.572-.517.38-.776.874-.776 1.479 0 .938.786 1.602 2.358 1.992l2.593.601c1.553.371 2.651.879 3.296 1.523.654.635.981 1.524.981 2.666 0 1.407-.595 2.549-1.787 3.428-1.182.879-2.72 1.318-4.614 1.318-1.807 0-3.281-.429-4.424-1.289-1.133-.859-1.763-2.002-1.89-3.427h3.135c.127.742.474 1.313 1.04 1.714.567.39 1.328.585 2.285.585.948 0 1.695-.18 2.242-.542.556-.371.835-.869.835-1.494 0-.498-.167-.893-.499-1.186-.332-.293-.898-.542-1.699-.747l-2.754-.674c-2.793-.674-4.19-2.1-4.19-4.277zm28.008.937h-3.018c-.166-.869-.566-1.577-1.201-2.124-.625-.547-1.431-.82-2.417-.82-1.231 0-2.217.483-2.959 1.45-.732.957-1.099 2.256-1.099 3.896 0 1.67.367 2.979 1.099 3.926.742.947 1.738 1.421 2.988 1.421.967 0 1.758-.249 2.373-.747.625-.508 1.031-1.211 1.216-2.109h3.047c-.166 1.65-.859 2.983-2.08 3.999-1.211 1.006-2.739 1.508-4.585 1.508-2.217 0-3.984-.712-5.303-2.138-1.318-1.436-1.977-3.389-1.977-5.86 0-2.441.659-4.379 1.977-5.815 1.319-1.445 3.076-2.168 5.274-2.168 1.914 0 3.466.537 4.658 1.611 1.191 1.065 1.86 2.388 2.007 3.97zm2.387 10.107v-21.137h3.135v8.305h.073c.43-.908 1.06-1.606 1.89-2.094.83-.498 1.826-.747 2.988-.747 1.68 0 2.998.517 3.955 1.552.967 1.036 1.451 2.432 1.451 4.19v9.931h-3.179v-9.316c0-1.152-.288-2.046-.864-2.681-.567-.634-1.402-.952-2.505-.952-1.162 0-2.085.371-2.769 1.114-.674.732-1.011 1.709-1.011 2.929v8.906h-3.164z" fill="#000"/><path d="M51.1 144.185h1.59c.077.686.41 1.237 1.002 1.653.598.416 1.351.624 2.26.624.855 0 1.56-.202 2.117-.607.563-.41.844-.925.844-1.547a1.68 1.68 0 00-.589-1.318c-.386-.346-1.008-.63-1.863-.852l-1.626-.422c-1.172-.299-2.027-.715-2.566-1.248-.54-.539-.809-1.24-.809-2.101 0-1.055.416-1.916 1.248-2.584.838-.668 1.916-1.002 3.234-1.002 1.26 0 2.303.34 3.13 1.02.825.673 1.256 1.541 1.291 2.601h-1.582c-.07-.679-.363-1.216-.879-1.608-.515-.393-1.186-.589-2.012-.589-.82 0-1.492.193-2.013.58-.516.387-.774.891-.774 1.512 0 .48.188.876.563 1.186.38.305 1.002.569 1.863.791l1.327.352c1.313.328 2.256.765 2.83 1.309.575.545.862 1.272.862 2.18 0 1.16-.428 2.08-1.283 2.76-.85.674-2.004 1.011-3.463 1.011-1.348 0-2.45-.337-3.305-1.011-.855-.674-1.321-1.57-1.397-2.69zm14.721-4.482c-.709 0-1.298.246-1.766.738-.463.487-.718 1.114-.765 1.881h4.966c-.018-.773-.25-1.403-.695-1.89-.445-.486-1.025-.729-1.74-.729zm2.4 5.353h1.503c-.135.808-.557 1.473-1.266 1.995-.703.521-1.55.782-2.54.782-1.307 0-2.335-.422-3.085-1.266-.75-.843-1.125-1.986-1.125-3.427 0-1.43.375-2.582 1.125-3.455.756-.873 1.76-1.309 3.015-1.309 1.23 0 2.203.413 2.918 1.239.715.826 1.072 1.934 1.072 3.322v.58H63.28v.088c0 .879.24 1.582.721 2.11.48.527 1.13.791 1.951.791.574 0 1.064-.132 1.468-.396.404-.263.67-.615.8-1.054zm3.243 2.619v-12.683h1.53v5.001h.034a2.769 2.769 0 011.125-1.195c.498-.282 1.09-.422 1.776-.422.996 0 1.781.307 2.355.923.574.615.861 1.438.861 2.469v5.907h-1.529v-5.625c0-.739-.184-1.31-.553-1.714-.364-.404-.9-.607-1.609-.607-.756 0-1.356.238-1.802.712-.44.475-.659 1.111-.659 1.908v5.326h-1.53zm9.624 0v-9.141h1.441v1.494h.035c.153-.51.425-.911.818-1.204a2.264 2.264 0 011.397-.448c.123 0 .328.02.615.061v1.486c-.163-.059-.436-.088-.817-.088-.592 0-1.066.196-1.424.589-.357.392-.536.911-.536 1.555v5.696h-1.53zm20.18-5.247c0 1.716-.475 3.055-1.424 4.016-.944.961-2.262 1.442-3.955 1.442-1.77 0-3.182-.598-4.237-1.793-1.049-1.202-1.573-2.81-1.573-4.826 0-1.98.525-3.556 1.573-4.728 1.05-1.172 2.461-1.758 4.237-1.758 1.37 0 2.537.378 3.498 1.134.967.75 1.567 1.755 1.801 3.015h-1.66c-.264-.856-.716-1.518-1.354-1.987-.633-.469-1.395-.703-2.285-.703-1.307 0-2.332.445-3.076 1.336-.739.885-1.108 2.112-1.108 3.683 0 1.593.375 2.853 1.125 3.779.75.926 1.77 1.389 3.059 1.389 1.125 0 2.039-.331 2.742-.994.703-.667 1.055-1.532 1.055-2.592v-.229h-3.578v-1.388h5.16v1.204zm9.298-3.894v9.141h-1.45v-1.486h-.035c-.568 1.096-1.535 1.644-2.9 1.644-.991 0-1.767-.299-2.329-.897-.557-.603-.835-1.426-.835-2.469v-5.933h1.529v5.66c0 1.524.703 2.285 2.109 2.285.739 0 1.319-.231 1.741-.694.427-.469.641-1.096.641-1.881v-5.37h1.529zm2.479-2.206h1.529v2.206h1.776v1.257h-1.776v5.432c0 .416.091.723.273.922.181.194.468.29.861.29.246 0 .457-.014.633-.044v1.284c-.199.047-.522.07-.967.07-.838 0-1.436-.188-1.793-.563-.357-.375-.536-1.001-.536-1.88v-5.511h-1.362v-1.257h1.362v-2.206z" fill="#313B57"/></svg>