<svg width="70" height="70" fill="none" xmlns="http://www.w3.org/2000/svg"><path d="M69.475 0H.525A.525.525 0 000 .525v68.95c0 .29.235.525.525.525h68.95c.29 0 .525-.235.525-.525V.525A.525.525 0 0069.475 0z" fill="#313B57"/><path d="M10.214 14.334c.496.054.874.205 1.133.453.26.244.39.575.39.994v1.19c0 .412.075.702.226.872.155.175.417.262.785.262h.255v1.232h-.43c-.86 0-1.483-.174-1.87-.523-.388-.349-.582-.907-.582-1.674v-.906c0-.426-.104-.728-.313-.907-.21-.182-.562-.274-1.058-.278v-1.616c.496-.004.848-.095 1.058-.273.209-.182.313-.486.313-.912v-.93c0-.759.194-1.31.581-1.65.388-.345 1.011-.517 1.871-.517h.43v1.232h-.255c-.368 0-.63.087-.785.261-.15.17-.226.461-.226.872V12.7c0 .418-.13.752-.39 1-.26.244-.637.393-1.133.447v.186zm7.572-3.027v6.519c0 .631-.19 1.11-.57 1.435-.38.326-.933.488-1.661.488-.21 0-.364-.007-.465-.023v-1.25c.054.009.126.012.215.012.283 0 .484-.056.604-.168.12-.108.18-.289.18-.54v-6.473h1.697zm-.203-.942a.886.886 0 01-.645.256.887.887 0 01-.645-.256.837.837 0 01-.262-.621c0-.248.087-.456.262-.622a.887.887 0 01.645-.256c.255 0 .47.085.645.256a.825.825 0 01.261.622.837.837 0 01-.261.621zm1.231 2.772c0-.593.238-1.067.715-1.424.476-.36 1.114-.54 1.912-.54.778 0 1.404.182 1.876.546.473.364.715.849.727 1.453H22.48a.782.782 0 00-.314-.593c-.186-.143-.436-.215-.75-.215-.294 0-.53.062-.709.186a.558.558 0 00-.261.482c0 .303.271.518.813.645l1.192.256c.623.14 1.07.343 1.342.61.275.264.412.628.412 1.093 0 .611-.255 1.104-.767 1.475-.51.372-1.18.558-2.004.558-.821 0-1.478-.182-1.97-.546a1.929 1.929 0 01-.808-1.47h1.656a.897.897 0 00.36.61c.202.143.471.215.808.215.322 0 .573-.058.755-.174a.555.555 0 00.28-.488.458.458 0 00-.175-.378c-.116-.097-.314-.178-.593-.244l-1.15-.256c-1.19-.271-1.784-.871-1.784-1.801zm10.314-.488l-1.343-.936.146 1.627h-1.058l.146-1.627-1.348.942-.523-.936 1.464-.668-1.464-.68.523-.93 1.336.918-.134-1.609h1.064l-.14 1.604 1.33-.918.535.935-1.481.68 1.481.668-.534.93zm6.443 1.685v-.186c-.496-.054-.873-.203-1.133-.447-.26-.248-.39-.582-.39-1v-1.185c0-.41-.077-.701-.232-.872-.15-.174-.41-.261-.778-.261h-.256V9.15h.43c.864 0 1.49.172 1.877.517.387.34.581.891.581 1.65v.93c0 .426.103.73.308.912.21.178.562.27 1.058.273v1.616c-.5.004-.853.095-1.058.273-.205.178-.308.48-.308.906v.89c0 .774-.196 1.338-.587 1.69-.387.352-1.01.529-1.87.529h-.43v-1.232h.255c.364 0 .624-.087.779-.262.154-.17.232-.459.232-.865v-1.192c0-.422.13-.755.39-.999.263-.248.64-.399 1.132-.453z" fill="#fff"/><path d="M28.796 46.606c0 2.441 2.386 4.72 6.146 6.005-.75 3.779-.134 6.824 1.925 8.011 2.116 1.22 5.269.376 8.262-2.239 2.917 2.509 5.865 3.496 7.922 2.306 2.114-1.223 2.757-4.475 1.985-8.372 3.918-1.294 6.109-3.237 6.109-5.711 0-2.385-2.39-4.448-6.1-5.725.83-4.057.127-7.029-2.018-8.265-2.067-1.191-5.05-.153-8.01 2.422-3.079-2.733-6.032-3.567-8.174-2.328-2.065 1.195-2.654 4.296-1.9 8.145-3.635 1.266-6.147 3.376-6.147 5.75z" fill="#313B57"/><path d="M54.259 42.149a19.354 19.354 0 00-.925-.291c.051-.21.099-.42.143-.63.7-3.397.242-6.133-1.321-7.034-1.499-.863-3.95.037-6.425 2.19-.244.213-.483.431-.715.656-.156-.15-.315-.296-.477-.44-2.594-2.301-5.194-3.272-6.756-2.368-1.497.866-1.94 3.438-1.31 6.657.062.319.133.636.212.95a18.98 18.98 0 00-1.063.335c-3.042 1.06-4.984 2.72-4.984 4.443 0 1.78 2.085 3.565 5.253 4.647.257.087.516.168.777.242-.085.34-.16.682-.226 1.026-.6 3.162-.131 5.673 1.362 6.534 1.542.889 4.13-.025 6.652-2.227.199-.174.399-.358.6-.552.251.243.51.48.776.708 2.441 2.1 4.853 2.948 6.345 2.085 1.54-.892 2.041-3.59 1.391-6.872a16.34 16.34 0 00-.172-.767c.182-.054.36-.11.534-.167 3.294-1.09 5.436-2.854 5.436-4.657 0-1.729-2.005-3.4-5.107-4.468z" fill="#fff"/><path d="M53.545 50.11c-.158.052-.319.102-.483.15a28.74 28.74 0 00-1.455-3.636 28.763 28.763 0 001.398-3.585c.294.085.58.175.854.27 2.659.914 4.28 2.266 4.28 3.308 0 1.11-1.75 2.551-4.594 3.493zm-1.18 2.336c.287 1.452.328 2.764.138 3.79-.171.922-.515 1.536-.94 1.782-.906.524-2.843-.157-4.93-1.953a17.63 17.63 0 01-.723-.658 28.824 28.824 0 002.408-3.056 28.689 28.689 0 003.891-.599c.059.236.11.468.156.694zm-11.933 5.482c-.884.312-1.589.32-2.015.075-.906-.522-1.282-2.538-.769-5.243.061-.32.131-.637.21-.953 1.177.26 2.48.447 3.872.56a29.865 29.865 0 002.466 3.045c-.179.172-.361.34-.548.504-1.114.974-2.231 1.664-3.216 2.012zm-4.144-7.825c-1.4-.478-2.557-1.1-3.35-1.779-.713-.61-1.073-1.215-1.073-1.707 0-1.045 1.56-2.379 4.161-3.285.327-.113.656-.217.989-.31a29.38 29.38 0 001.4 3.625 29.868 29.868 0 00-1.417 3.678 14.999 14.999 0 01-.71-.222zm1.39-9.45c-.54-2.758-.182-4.838.72-5.36.962-.556 3.087.237 5.327 2.225.143.127.287.26.43.398a29.408 29.408 0 00-2.447 3.026 30.019 30.019 0 00-3.833.596c-.073-.293-.14-.588-.197-.885zm12.392 3.058a38.966 38.966 0 00-.874-1.436c.917.116 1.795.27 2.62.458a26.164 26.164 0 01-.92 2.472 42.9 42.9 0 00-.826-1.494zm-5.054-4.919a26.21 26.21 0 011.69 2.04 36.174 36.174 0 00-3.395-.001 27.098 27.098 0 011.705-2.039zM39.93 43.72a36.37 36.37 0 00-.81 1.484 27.06 27.06 0 01-.914-2.484c.82-.183 1.694-.333 2.605-.447a34.42 34.42 0 00-.88 1.447zm.907 7.33a26.182 26.182 0 01-2.648-.426c.254-.819.567-1.67.932-2.535a35.88 35.88 0 001.716 2.96zm4.213 3.48a27.558 27.558 0 01-1.728-2.068 39.6 39.6 0 003.415-.006c-.56.76-1.125 1.455-1.687 2.073zm5.858-6.485c.384.875.708 1.721.965 2.526-.834.19-1.733.343-2.68.456a40.83 40.83 0 001.715-2.982zm-1.896.908a40.286 40.286 0 01-1.379 2.223 37.52 37.52 0 01-2.63.092c-.895 0-1.764-.028-2.602-.082a34.752 34.752 0 01-2.63-4.54 34.743 34.743 0 012.616-4.53 34.763 34.763 0 015.236.001c.488.72.95 1.456 1.385 2.209.437.754.85 1.522 1.238 2.303-.384.79-.795 1.565-1.234 2.324zm2.531-13.696c.962.555 1.336 2.79.732 5.723-.04.19-.083.38-.13.57a29.462 29.462 0 00-3.84-.606 28.819 28.819 0 00-2.429-3.029c.215-.207.436-.41.66-.606 2.122-1.844 4.104-2.573 5.007-2.052z" fill="#313B57"/><path d="M45.003 44.054a2.565 2.565 0 11.001 5.129 2.565 2.565 0 01-.001-5.13z" fill="#fff"/></svg>