<svg width="171" height="171" fill="none" xmlns="http://www.w3.org/2000/svg"><rect width="171" height="171" rx="3" fill="#313B57"/><path d="M118.671 21.934v8.086h4.57c1.336 0 2.373-.358 3.112-1.072.75-.715 1.125-1.706 1.125-2.971 0-1.23-.387-2.21-1.161-2.936-.773-.738-1.816-1.107-3.129-1.107h-4.517zm0 11.935v9.282h-5.309V17.785h10.389c2.895 0 5.145.721 6.75 2.163 1.617 1.43 2.426 3.404 2.426 5.923 0 1.653-.41 3.13-1.231 4.43-.808 1.29-1.933 2.215-3.375 2.777l5.344 10.073h-6.012l-4.728-9.282h-4.254zm23.062-16.084v15.873c0 1.653.463 2.965 1.389 3.938.938.96 2.25 1.441 3.938 1.441 1.675 0 2.976-.48 3.902-1.441.937-.973 1.406-2.285 1.406-3.938V17.785h5.309v16.4c0 2.813-.967 5.087-2.901 6.821-1.922 1.723-4.494 2.584-7.716 2.584-3.235 0-5.819-.861-7.752-2.584-1.922-1.734-2.883-4.008-2.883-6.82v-16.4h5.308z" fill="#8C909B"/><path d="M28.922 101.177v7.602h4.6c1.269 0 2.25-.332 2.944-.996.693-.664 1.04-1.602 1.04-2.813 0-1.181-.361-2.109-1.084-2.783-.723-.674-1.719-1.01-2.988-1.01h-4.512zm0 10.253v8.13H25.64V98.423h8.188c2.168 0 3.887.585 5.156 1.757 1.27 1.163 1.905 2.73 1.905 4.703 0 1.435-.367 2.695-1.099 3.779-.723 1.074-1.724 1.826-3.003 2.256l4.732 8.642h-3.78l-4.306-8.13h-4.512zm27.978-7.28v15.41h-3.032v-2.607h-.073c-.889 1.924-2.48 2.886-4.776 2.886-1.68 0-3.002-.508-3.97-1.524-.956-1.025-1.435-2.422-1.435-4.189v-9.976h3.164v9.36c0 1.182.279 2.081.835 2.696.557.605 1.377.908 2.461.908 1.133 0 2.027-.361 2.68-1.084.655-.723.982-1.689.982-2.9v-8.98H56.9zm2.857 4.365c0-1.377.556-2.495 1.67-3.354 1.113-.859 2.568-1.289 4.365-1.289 1.709 0 3.11.434 4.204 1.304 1.104.859 1.68 1.977 1.729 3.354H68.75c-.078-.703-.386-1.255-.923-1.655-.537-.401-1.245-.601-2.124-.601-.86 0-1.553.191-2.08.571-.518.381-.776.874-.776 1.48 0 .937.786 1.602 2.358 1.992l2.593.601c1.553.371 2.651.879 3.296 1.523.654.635.981 1.524.981 2.666 0 1.406-.595 2.549-1.787 3.428-1.182.879-2.72 1.318-4.614 1.318-1.807 0-3.281-.429-4.424-1.289-1.133-.859-1.763-2.002-1.89-3.428h3.135c.127.743.474 1.314 1.04 1.714.567.391 1.328.586 2.285.586.948 0 1.695-.18 2.242-.542.556-.371.834-.869.834-1.494 0-.498-.166-.893-.498-1.186-.332-.293-.898-.542-1.699-.747l-2.754-.674c-2.793-.674-4.19-2.1-4.19-4.278zm14.502 0c0-1.377.556-2.495 1.67-3.354 1.113-.859 2.568-1.289 4.365-1.289 1.709 0 3.11.434 4.204 1.304 1.104.859 1.68 1.977 1.729 3.354h-2.974c-.078-.703-.386-1.255-.923-1.655-.537-.401-1.245-.601-2.124-.601-.86 0-1.553.191-2.08.571-.518.381-.776.874-.776 1.48 0 .937.786 1.602 2.358 1.992l2.593.601c1.552.371 2.651.879 3.296 1.523.654.635.981 1.524.981 2.666 0 1.406-.596 2.549-1.787 3.428-1.182.879-2.72 1.318-4.614 1.318-1.807 0-3.282-.429-4.424-1.289-1.133-.859-1.763-2.002-1.89-3.428h3.135c.127.743.474 1.314 1.04 1.714.567.391 1.328.586 2.285.586.948 0 1.695-.18 2.242-.542.556-.371.834-.869.834-1.494 0-.498-.166-.893-.498-1.186-.332-.293-.898-.542-1.699-.747l-2.754-.674c-2.793-.674-4.19-2.1-4.19-4.278zm14.883 11.045v-15.41h3.164v15.41h-3.164zm2.885-18.193a1.8 1.8 0 01-1.303.527 1.8 1.8 0 01-1.304-.527 1.736 1.736 0 01-.527-1.274c0-.508.175-.938.527-1.29a1.802 1.802 0 011.304-.527c.517 0 .952.176 1.303.528.362.351.542.78.542 1.289 0 .498-.18.922-.542 1.274zm3.238 7.148c0-1.377.556-2.495 1.67-3.354 1.113-.859 2.568-1.289 4.365-1.289 1.709 0 3.11.434 4.204 1.304 1.103.859 1.68 1.977 1.728 3.354h-2.973c-.078-.703-.386-1.255-.923-1.655-.537-.401-1.245-.601-2.124-.601-.859 0-1.553.191-2.08.571-.518.381-.776.874-.776 1.48 0 .937.786 1.602 2.358 1.992l2.593.601c1.552.371 2.651.879 3.296 1.523.654.635.981 1.524.981 2.666 0 1.406-.596 2.549-1.787 3.428-1.182.879-2.72 1.318-4.614 1.318-1.807 0-3.282-.429-4.424-1.289-1.133-.859-1.763-2.002-1.89-3.428h3.135c.127.743.474 1.314 1.04 1.714.566.391 1.328.586 2.285.586.947 0 1.694-.18 2.241-.542.557-.371.835-.869.835-1.494 0-.498-.166-.893-.498-1.186-.332-.293-.898-.542-1.699-.747l-2.754-.674c-2.793-.674-4.19-2.1-4.19-4.278zm28.007.938h-3.017c-.166-.869-.567-1.577-1.201-2.124-.625-.547-1.431-.82-2.417-.82-1.231 0-2.217.483-2.959 1.45-.733.957-1.099 2.256-1.099 3.896 0 1.67.366 2.979 1.099 3.926.742.947 1.738 1.421 2.988 1.421.967 0 1.758-.249 2.373-.747.625-.508 1.03-1.211 1.216-2.11h3.047c-.166 1.651-.86 2.984-2.08 3.999-1.211 1.006-2.74 1.509-4.585 1.509-2.217 0-3.985-.713-5.303-2.138-1.318-1.436-1.978-3.389-1.978-5.86 0-2.441.66-4.38 1.978-5.815 1.318-1.446 3.076-2.168 5.273-2.168 1.914 0 3.467.537 4.659 1.611 1.191 1.065 1.86 2.388 2.006 3.97zm2.388 10.107V98.423h3.135v8.305h.073c.43-.908 1.06-1.606 1.89-2.094.83-.499 1.826-.748 2.988-.748 1.68 0 2.998.518 3.955 1.553.967 1.035 1.45 2.432 1.45 4.19v9.931h-3.178v-9.316c0-1.152-.288-2.046-.865-2.681-.566-.635-1.401-.952-2.504-.952-1.163 0-2.085.371-2.769 1.113-.674.733-1.011 1.709-1.011 2.93v8.906h-3.164zm-71.47 22.565h1.591c.076.686.41 1.237 1.002 1.653.598.416 1.35.624 2.259.624.855 0 1.561-.203 2.118-.607.563-.41.844-.926.844-1.547a1.68 1.68 0 00-.589-1.318c-.387-.346-1.008-.63-1.863-.853l-1.626-.421c-1.172-.299-2.028-.715-2.567-1.249-.539-.539-.808-1.239-.808-2.1 0-1.055.416-1.916 1.248-2.584.838-.668 1.916-1.002 3.234-1.002 1.26 0 2.303.34 3.13 1.019.825.674 1.256 1.541 1.291 2.602h-1.582c-.07-.68-.363-1.216-.879-1.608-.516-.393-1.186-.589-2.013-.589-.82 0-1.49.193-2.012.58-.516.387-.774.89-.774 1.512 0 .48.188.876.563 1.186.38.305 1.002.568 1.863.791l1.327.352c1.313.328 2.256.764 2.83 1.309.575.545.862 1.272.862 2.18 0 1.16-.428 2.08-1.284 2.76-.85.674-2.003 1.01-3.462 1.01-1.348 0-2.45-.336-3.305-1.01-.856-.674-1.321-1.571-1.398-2.69zm14.722-4.482c-.709 0-1.298.246-1.767.738-.462.486-.717 1.113-.764 1.881h4.966c-.018-.773-.25-1.403-.695-1.89-.445-.486-1.025-.729-1.74-.729zm2.4 5.352h1.502c-.134.809-.556 1.474-1.265 1.995-.703.522-1.55.783-2.54.783-1.307 0-2.335-.422-3.085-1.266-.75-.844-1.125-1.986-1.125-3.428 0-1.429.375-2.581 1.125-3.454.756-.873 1.76-1.309 3.014-1.309 1.23 0 2.204.413 2.918 1.239.715.826 1.073 1.934 1.073 3.322v.58h-6.557v.088c0 .879.24 1.582.72 2.11.481.527 1.132.791 1.952.791.574 0 1.063-.132 1.468-.396a1.86 1.86 0 00.8-1.055zm3.243 2.62v-12.683h1.529v5.001h.035a2.77 2.77 0 011.125-1.195c.498-.282 1.09-.422 1.775-.422.997 0 1.782.307 2.356.923.574.615.861 1.438.861 2.469v5.907h-1.529v-5.625c0-.739-.184-1.31-.554-1.714-.363-.405-.9-.607-1.608-.607-.756 0-1.356.237-1.802.712-.44.475-.659 1.11-.659 1.907v5.327h-1.53zm9.624 0v-9.141h1.441v1.494h.035c.153-.51.425-.911.818-1.204a2.263 2.263 0 011.397-.448c.123 0 .328.02.615.061v1.486c-.164-.059-.436-.088-.817-.088-.592 0-1.066.196-1.424.589-.357.392-.536.911-.536 1.555v5.696h-1.53zm20.179-5.248c0 1.717-.474 3.056-1.423 4.017-.944.961-2.262 1.441-3.956 1.441-1.769 0-3.181-.597-4.236-1.793-1.049-1.201-1.573-2.809-1.573-4.825 0-1.98.524-3.556 1.573-4.728 1.049-1.172 2.461-1.758 4.237-1.758 1.371 0 2.537.378 3.498 1.134.966.75 1.567 1.755 1.801 3.014h-1.661c-.264-.855-.715-1.517-1.353-1.986-.633-.469-1.395-.703-2.285-.703-1.307 0-2.333.445-3.077 1.336-.738.885-1.107 2.112-1.107 3.682 0 1.594.375 2.854 1.125 3.78.75.926 1.77 1.388 3.058 1.388 1.125 0 2.04-.331 2.743-.993.703-.668 1.054-1.532 1.054-2.592v-.229h-3.577v-1.389h5.159v1.204zm9.299-3.893v9.141h-1.45v-1.486h-.035c-.568 1.096-1.535 1.644-2.901 1.644-.99 0-1.766-.299-2.329-.897-.556-.603-.835-1.427-.835-2.47v-5.932h1.53v5.66c0 1.523.703 2.285 2.109 2.285.738 0 1.318-.231 1.74-.694.428-.469.642-1.096.642-1.881v-5.37h1.529zm2.479-2.206h1.529v2.206h1.775v1.257h-1.775v5.431c0 .416.091.724.273.923.181.194.468.29.861.29.246 0 .457-.014.633-.044v1.284c-.2.046-.522.07-.967.07-.838 0-1.436-.188-1.793-.563-.358-.375-.536-1.002-.536-1.881v-5.51h-1.363v-1.257h1.363v-2.206z" fill="#F5F7FB"/></svg>