<svg width="70" height="70" fill="none" xmlns="http://www.w3.org/2000/svg"><path d="M69.475 0H.525A.525.525 0 000 .525v68.95c0 .29.235.525.525.525h68.95c.29 0 .525-.235.525-.525V.525A.525.525 0 0069.475 0z" fill="#313B57"/><path d="M10.45 14.274c.49.052.865.194 1.122.429.257.23.385.543.385.938v1.125c0 .388.075.663.224.824.154.164.413.246.777.246h.253V19h-.425c-.852 0-1.47-.165-1.853-.494-.383-.33-.575-.856-.575-1.58v-.857c0-.402-.104-.688-.31-.856-.208-.172-.557-.26-1.048-.263v-1.526c.49-.004.84-.09 1.047-.258.207-.172.31-.46.31-.862v-.878c0-.717.193-1.237.576-1.559.384-.325 1.001-.488 1.853-.488h.425v1.163h-.253c-.364 0-.623.083-.777.247-.15.161-.224.436-.224.824v1.12c0 .394-.128.709-.385.943-.257.23-.631.372-1.122.423v.175zm9.055-.669h-1.559a1.262 1.262 0 00-.397-.769c-.21-.194-.485-.29-.822-.29-.419 0-.748.16-.99.482-.238.319-.357.76-.357 1.323 0 .575.12 1.021.357 1.34.242.318.573.477.995.477.334 0 .606-.09.817-.269.211-.183.343-.435.397-.757h1.565c-.042.695-.316 1.25-.823 1.663-.506.413-1.164.62-1.973.62-.936 0-1.676-.273-2.22-.818-.545-.549-.818-1.3-.818-2.256 0-.94.273-1.685.817-2.234.549-.552 1.285-.828 2.21-.828.82 0 1.482.216 1.984.647.507.432.779.988.817 1.669zm.714-.461c0-.56.235-1.008.707-1.345.472-.34 1.103-.51 1.893-.51.771 0 1.39.172 1.858.516.468.344.708.8.72 1.372h-1.548a.73.73 0 00-.31-.56c-.185-.136-.432-.203-.743-.203-.291 0-.525.058-.702.175a.521.521 0 00-.259.456c0 .285.269.489.806.61l1.18.24c.617.132 1.06.325 1.328.577.272.249.409.593.409 1.032 0 .578-.254 1.043-.76 1.394s-1.168.527-1.985.527c-.813 0-1.463-.172-1.95-.516-.487-.344-.754-.807-.8-1.389h1.64a.84.84 0 00.357.577c.2.135.466.203.8.203.318 0 .567-.055.747-.165.184-.113.276-.267.276-.461a.425.425 0 00-.172-.357c-.115-.091-.31-.168-.587-.23l-1.14-.242c-1.177-.256-1.765-.823-1.765-1.701zm6.075 0c0-.56.236-1.008.708-1.345.471-.34 1.102-.51 1.892-.51.771 0 1.39.172 1.859.516.468.344.707.8.719 1.372h-1.548a.73.73 0 00-.31-.56c-.185-.136-.432-.203-.743-.203-.291 0-.525.058-.701.175a.522.522 0 00-.26.456c0 .285.269.489.806.61l1.18.24c.617.132 1.06.325 1.328.577.273.249.409.593.409 1.032 0 .578-.253 1.043-.76 1.394-.506.351-1.168.527-1.984.527-.813 0-1.464-.172-1.95-.516-.488-.344-.754-.807-.8-1.389h1.64a.84.84 0 00.356.577c.2.135.466.203.8.203.318 0 .567-.055.748-.165.184-.113.276-.267.276-.461a.425.425 0 00-.173-.357c-.115-.091-.31-.168-.587-.23l-1.139-.242c-1.177-.256-1.766-.823-1.766-1.701zm10.212-.461l-1.33-.884.145 1.537h-1.047l.143-1.537-1.334.89-.518-.884 1.45-.632-1.45-.642.518-.878 1.323.867L34.273 9h1.053l-.138 1.515 1.318-.867.529.883-1.467.642 1.467.632-.53.878zm4.044 1.591V14.1c-.49-.051-.865-.192-1.122-.423-.257-.234-.385-.549-.385-.944v-1.12c0-.387-.077-.662-.23-.823-.15-.164-.407-.247-.771-.247h-.253V9.38h.425c.856 0 1.475.163 1.859.488.383.322.575.842.575 1.559v.878c0 .402.102.69.305.862.207.168.556.254 1.047.258v1.526c-.495.003-.844.09-1.047.258-.203.168-.305.453-.305.856v.84c0 .731-.194 1.264-.581 1.596-.384.334-1.001.5-1.853.5h-.425v-1.164h.253c.36 0 .617-.082.77-.246.154-.162.23-.434.23-.818v-1.125c0-.4.13-.714.386-.944.261-.235.635-.377 1.122-.429zm5.664 34.101c-.601.276-1.26.636-2.579 1.36-.5.281-1.022.563-1.509.828-.033-.034-.068-.077-.102-.112-2.609-2.787-7.434-4.756-7.229-8.5.076-1.364.545-4.944 9.266-9.291 7.178-3.537 12.89-2.557 13.875-.384 1.418 3.099-3.06 8.865-10.473 9.701a5.587 5.587 0 01-4.69-1.184c-.392-.427-.45-.452-.595-.367-.24.125-.085.511 0 .733a4.374 4.374 0 002.676 2.105c2.917.63 5.958.329 8.695-.861 4.492-1.74 8-6.573 6.972-10.625-1.03-4.11-7.85-5.464-14.303-3.172a32.5 32.5 0 00-10.988 6.309c-3.555 3.325-4.117 6.215-3.887 7.425.827 4.296 6.75 7.092 9.125 9.164-.125.069-.23.125-.324.178-1.185.59-5.703 2.95-6.829 5.448-1.279 2.83.205 4.859 1.185 5.131a7.29 7.29 0 007.851-3.18 7.874 7.874 0 00.7-7.25c.28-.224.58-.423.894-.596.605-.358 1.181-.71 1.693-.983 1.75-.82 3.66-1.242 5.593-1.236 4.058.478 4.86 3.009 4.705 4.075a2.696 2.696 0 01-1.287 1.824c-.281.179-.375.239-.35.366.034.188.17.179.409.145a3.168 3.168 0 002.207-2.821c.125-2.5-2.259-5.242-6.479-5.217a9.69 9.69 0 00-3.682.733c-.188.078-.37.161-.546.25l.006.004zm-6.031 9.799c-1.348 1.466-3.223 2.02-4.033 1.551-.875-.5-.529-2.669 1.125-4.22a21.471 21.471 0 013.163-2.361c.196-.125.486-.29.835-.5l.093-.051.205-.126a5.822 5.822 0 01-1.388 5.707z" fill="#fff"/></svg>