<svg width="70" height="70" viewBox="0 0 70 70" fill="none" xmlns="http://www.w3.org/2000/svg">
<path d="M53.209 29.3044C53.8486 30.5227 54.0631 31.8222 54.044 33.1665H44.8036C45.3648 29.5504 46.8515 27.345 49.8013 27.4113C51.517 27.4113 52.6529 28.0432 53.209 29.3044ZM19.2087 34.2266H27.084L22.9949 18.7787C22.4813 22.2729 20.6806 28.226 19.2087 34.2266ZM70 0V70H0V0H70ZM37.5174 49.9773L26.6913 13.478H19.2087C19.2087 14.2874 19.1568 15.17 19.0572 15.5226C18.9555 15.8776 18.9057 16.2042 18.9057 16.507L9.34281 49.9773H15.0008L17.6941 39.6788H28.2957L31.2603 49.9773H37.5174ZM59.6456 33.4693C59.6456 31.0461 58.9379 28.623 57.5254 26.1998C56.1103 23.7766 53.5876 22.565 49.9528 22.565C46.4175 22.565 43.6677 23.9541 41.6989 26.7299C37.985 31.6276 37.5977 40.8789 41.5475 46.2667C43.4145 49.0448 46.5192 50.4317 50.8616 50.4317C53.2395 50.4257 55.507 50.1389 57.5252 49.22C57.7608 48.9774 57.8216 48.8623 57.8282 48.4627V44.3736C57.8214 44.09 57.6659 44.0783 57.3739 44.0709C54.4187 45.515 50.1233 45.4636 47.9501 44.2106C45.9281 43.0448 44.7393 40.6081 44.8036 37.71H53.4361C54.9507 37.71 56.1623 37.6863 57.0709 37.6343C57.9797 37.5845 58.635 37.5088 59.0397 37.4071C59.1392 37.4071 59.2149 37.3833 59.2669 37.3313L59.4941 37.1041C59.4941 36.8013 59.5178 36.3232 59.5699 35.6653C59.6195 35.0098 59.6456 34.2787 59.6456 33.4693Z" fill="#313B57"/>
</svg>
