<svg width="70" height="70" viewBox="0 0 70 70" fill="none" xmlns="http://www.w3.org/2000/svg">
<path fill-rule="evenodd" clip-rule="evenodd" d="M23.5223 14.7667H30.8141L41.2994 49.8954H34.9658L32.3578 39.8891H22.1386L19.4772 49.8955H13.8886L23.5225 16.4168V14.7667H23.5223ZM30.9206 34.7263L27.3012 19.8762L23.5755 34.726H30.9206V34.7263ZM52.1575 23.7888H46.4092V49.8955H52.1575V23.7891V23.7888ZM49.2092 13.646C47.3469 13.646 45.8373 15.1383 45.8373 16.9792C45.8373 18.8202 47.3469 20.3126 49.2092 20.3126C51.0714 20.3126 52.5812 18.8203 52.5812 16.9794C52.5812 15.1385 51.0716 13.646 49.2092 13.646ZM70 70H0V0H70V70Z" fill="#313B57"/>
</svg>
