<svg width="169" height="169" viewBox="0 0 169 169" fill="none" xmlns="http://www.w3.org/2000/svg">
<rect width="169" height="169" rx="3" fill="#F5F7FB"/>
<path d="M114.098 13.6528H123.783C127.604 13.6528 130.574 14.7485 132.695 16.9399C134.816 19.1313 135.877 22.231 135.877 26.2388C135.877 30.2583 134.811 33.3931 132.678 35.6431C130.557 37.8931 127.592 39.0181 123.783 39.0181H114.098V13.6528ZM119.406 18.0298V34.6235H123.15C125.529 34.6235 127.34 33.9146 128.582 32.4966C129.836 31.0669 130.463 28.9868 130.463 26.2563C130.463 23.6079 129.83 21.5747 128.564 20.1567C127.299 18.7388 125.494 18.0298 123.15 18.0298H119.406ZM156.109 34.6235V39.0181H139.305V13.6528H156.109V18.0298H144.613V24.147H155.459V28.2251H144.613V34.6235H156.109Z" fill="#A0A4AF"/>
<path d="M31.4727 99.4347H38.9287C42.0732 99.4347 44.5244 100.358 46.2822 102.203C48.0498 104.049 48.9336 106.637 48.9336 109.967C48.9336 113.307 48.0547 115.909 46.2969 117.775C44.5391 119.64 42.083 120.572 38.9287 120.572H31.4727V99.4347ZM34.7539 102.262V117.731H38.6211C40.8672 117.731 42.5859 117.067 43.7773 115.738C44.9785 114.41 45.5791 112.496 45.5791 109.996C45.5791 107.506 44.9785 105.597 43.7773 104.269C42.5762 102.931 40.8574 102.262 38.6211 102.262H34.7539ZM60.8135 108.546C60.1201 107.804 59.2266 107.433 58.1328 107.433C57.0391 107.433 56.1309 107.809 55.4082 108.561C54.6855 109.303 54.2852 110.265 54.207 111.446H61.9121C61.873 110.255 61.5068 109.288 60.8135 108.546ZM61.8975 116.046H64.9004C64.6758 117.462 63.9531 118.619 62.7324 119.518C61.5117 120.416 60.0225 120.865 58.2646 120.865C56.0088 120.865 54.2314 120.157 52.9326 118.741C51.6436 117.316 50.999 115.382 50.999 112.941C50.999 110.519 51.6436 108.57 52.9326 107.096C54.2314 105.621 55.9648 104.884 58.1328 104.884C60.2617 104.884 61.9512 105.582 63.2012 106.979C64.4512 108.365 65.0762 110.231 65.0762 112.574V113.658H54.1924V113.849C54.1924 115.196 54.5684 116.276 55.3203 117.086C56.0723 117.897 57.0781 118.302 58.3379 118.302C59.2266 118.302 59.9883 118.097 60.623 117.687C61.2578 117.276 61.6826 116.73 61.8975 116.046ZM80.75 105.162V120.572H77.7178V117.965H77.6445C76.7559 119.889 75.1641 120.851 72.8691 120.851C71.1895 120.851 69.8662 120.343 68.8994 119.327C67.9424 118.302 67.4639 116.905 67.4639 115.138V105.162H70.6279V114.523C70.6279 115.704 70.9062 116.603 71.4629 117.218C72.0195 117.823 72.8398 118.126 73.9238 118.126C75.0566 118.126 75.9502 117.765 76.6045 117.042C77.2588 116.319 77.5859 115.353 77.5859 114.142V105.162H80.75ZM84.8076 101.515H87.9863V105.162H90.916V107.667H87.9863V116.163C87.9863 116.827 88.1377 117.316 88.4404 117.628C88.7432 117.941 89.2168 118.097 89.8613 118.097C90.3301 118.097 90.6768 118.072 90.9014 118.024V120.528C90.5107 120.626 89.9248 120.675 89.1436 120.675C87.5908 120.675 86.4775 120.358 85.8037 119.723C85.1396 119.078 84.8076 118.009 84.8076 116.515V107.667H82.5664V105.162H84.8076V101.515ZM93.2451 109.527C93.2451 108.151 93.8018 107.032 94.915 106.173C96.0283 105.314 97.4834 104.884 99.2803 104.884C100.989 104.884 102.391 105.318 103.484 106.188C104.588 107.047 105.164 108.165 105.213 109.542H102.239C102.161 108.839 101.854 108.287 101.316 107.887C100.779 107.486 100.071 107.286 99.1924 107.286C98.333 107.286 97.6396 107.477 97.1123 107.858C96.5947 108.238 96.3359 108.732 96.3359 109.337C96.3359 110.275 97.1221 110.939 98.6943 111.329L101.287 111.93C102.84 112.301 103.938 112.809 104.583 113.453C105.237 114.088 105.564 114.977 105.564 116.119C105.564 117.526 104.969 118.668 103.777 119.547C102.596 120.426 101.058 120.865 99.1631 120.865C97.3564 120.865 95.8818 120.436 94.7393 119.576C93.6064 118.717 92.9766 117.574 92.8496 116.149H95.9844C96.1113 116.891 96.458 117.462 97.0244 117.862C97.5908 118.253 98.3525 118.448 99.3096 118.448C100.257 118.448 101.004 118.268 101.551 117.906C102.107 117.535 102.386 117.037 102.386 116.412C102.386 115.914 102.22 115.519 101.888 115.226C101.556 114.933 100.989 114.684 100.188 114.479L97.4346 113.805C94.6416 113.131 93.2451 111.705 93.2451 109.527ZM121.253 110.465H118.235C118.069 109.596 117.669 108.888 117.034 108.341C116.409 107.794 115.604 107.521 114.617 107.521C113.387 107.521 112.4 108.004 111.658 108.971C110.926 109.928 110.56 111.227 110.56 112.867C110.56 114.537 110.926 115.846 111.658 116.793C112.4 117.74 113.396 118.214 114.646 118.214C115.613 118.214 116.404 117.965 117.02 117.467C117.645 116.959 118.05 116.256 118.235 115.358H121.282C121.116 117.008 120.423 118.341 119.202 119.357C117.991 120.362 116.463 120.865 114.617 120.865C112.4 120.865 110.633 120.152 109.314 118.727C107.996 117.291 107.337 115.338 107.337 112.867C107.337 110.426 107.996 108.487 109.314 107.052C110.633 105.607 112.391 104.884 114.588 104.884C116.502 104.884 118.055 105.421 119.246 106.495C120.438 107.56 121.106 108.883 121.253 110.465ZM123.641 120.572V99.4347H126.775V107.74H126.849C127.278 106.832 127.908 106.134 128.738 105.646C129.568 105.148 130.564 104.899 131.727 104.899C133.406 104.899 134.725 105.416 135.682 106.451C136.648 107.486 137.132 108.883 137.132 110.641V120.572H133.953V111.256C133.953 110.104 133.665 109.21 133.089 108.575C132.522 107.941 131.688 107.623 130.584 107.623C129.422 107.623 128.499 107.994 127.815 108.736C127.142 109.469 126.805 110.445 126.805 111.666V120.572H123.641Z" fill="black"/>
<path d="M50.5088 142.716H52.0996C52.1758 143.401 52.5098 143.952 53.1016 144.368C53.6992 144.784 54.4521 144.992 55.3604 144.992C56.2158 144.992 56.9219 144.79 57.4785 144.385C58.041 143.975 58.3223 143.46 58.3223 142.839C58.3223 142.305 58.126 141.866 57.7334 141.52C57.3467 141.175 56.7256 140.89 55.8701 140.668L54.2441 140.246C53.0723 139.947 52.2168 139.531 51.6777 138.998C51.1387 138.459 50.8691 137.759 50.8691 136.897C50.8691 135.843 51.2852 134.981 52.1172 134.313C52.9551 133.645 54.0332 133.311 55.3516 133.311C56.6113 133.311 57.6543 133.651 58.4805 134.331C59.3066 135.005 59.7373 135.872 59.7725 136.932H58.1904C58.1201 136.253 57.8271 135.717 57.3115 135.324C56.7959 134.931 56.125 134.735 55.2988 134.735C54.4785 134.735 53.8076 134.928 53.2861 135.315C52.7705 135.702 52.5127 136.206 52.5127 136.827C52.5127 137.307 52.7002 137.703 53.0752 138.013C53.4561 138.318 54.0771 138.582 54.9385 138.804L56.2656 139.156C57.5781 139.484 58.5215 139.921 59.0957 140.466C59.6699 141.01 59.957 141.737 59.957 142.645C59.957 143.805 59.5293 144.725 58.6738 145.405C57.8242 146.079 56.6699 146.416 55.2109 146.416C53.8633 146.416 52.7617 146.079 51.9062 145.405C51.0508 144.731 50.585 143.835 50.5088 142.716ZM65.2305 138.233C64.5215 138.233 63.9326 138.479 63.4639 138.971C63.001 139.458 62.7461 140.085 62.6992 140.852H67.665C67.6475 140.079 67.416 139.449 66.9707 138.963C66.5254 138.476 65.9453 138.233 65.2305 138.233ZM67.6299 143.586H69.1328C68.998 144.394 68.5762 145.059 67.8672 145.581C67.1641 146.102 66.3174 146.363 65.3271 146.363C64.0205 146.363 62.9922 145.941 62.2422 145.097C61.4922 144.254 61.1172 143.111 61.1172 141.67C61.1172 140.24 61.4922 139.089 62.2422 138.216C62.998 137.343 64.0029 136.906 65.2568 136.906C66.4873 136.906 67.46 137.319 68.1748 138.145C68.8896 138.971 69.2471 140.079 69.2471 141.468V142.048H62.6904V142.135C62.6904 143.014 62.9307 143.718 63.4111 144.245C63.8916 144.772 64.542 145.036 65.3623 145.036C65.9365 145.036 66.4258 144.904 66.8301 144.64C67.2344 144.377 67.501 144.025 67.6299 143.586ZM70.873 146.205V133.522H72.4023V138.523H72.4375C72.6953 138.008 73.0703 137.609 73.5625 137.328C74.0605 137.047 74.6523 136.906 75.3379 136.906C76.334 136.906 77.1191 137.214 77.6934 137.829C78.2676 138.444 78.5547 139.267 78.5547 140.299V146.205H77.0254V140.58C77.0254 139.842 76.8408 139.27 76.4717 138.866C76.1084 138.462 75.5723 138.26 74.8633 138.26C74.1074 138.26 73.5068 138.497 73.0615 138.971C72.6221 139.446 72.4023 140.082 72.4023 140.879V146.205H70.873ZM80.4971 146.205V137.064H81.9385V138.558H81.9736C82.126 138.049 82.3984 137.647 82.791 137.354C83.1895 137.055 83.6553 136.906 84.1885 136.906C84.3115 136.906 84.5166 136.927 84.8037 136.968V138.453C84.6396 138.394 84.3672 138.365 83.9863 138.365C83.3945 138.365 82.9199 138.561 82.5625 138.954C82.2051 139.346 82.0264 139.865 82.0264 140.51V146.205H80.4971ZM100.677 140.958C100.677 142.675 100.202 144.013 99.2529 144.974C98.3096 145.935 96.9912 146.416 95.2979 146.416C93.5283 146.416 92.1162 145.818 91.0615 144.623C90.0127 143.422 89.4883 141.813 89.4883 139.798C89.4883 137.817 90.0127 136.241 91.0615 135.069C92.1104 133.897 93.5225 133.311 95.2979 133.311C96.6689 133.311 97.835 133.689 98.7959 134.445C99.7627 135.195 100.363 136.2 100.598 137.46H98.9365C98.6729 136.604 98.2217 135.942 97.583 135.473C96.9502 135.005 96.1885 134.77 95.2979 134.77C93.9912 134.77 92.9658 135.216 92.2217 136.106C91.4834 136.991 91.1143 138.219 91.1143 139.789C91.1143 141.383 91.4893 142.642 92.2393 143.568C92.9893 144.494 94.0088 144.957 95.2979 144.957C96.4229 144.957 97.3369 144.626 98.04 143.964C98.7432 143.296 99.0947 142.431 99.0947 141.371V141.142H95.5176V139.754H100.677V140.958ZM109.976 137.064V146.205H108.525V144.719H108.49C107.922 145.815 106.955 146.363 105.59 146.363C104.6 146.363 103.823 146.064 103.261 145.467C102.704 144.863 102.426 144.04 102.426 142.997V137.064H103.955V142.724C103.955 144.248 104.658 145.01 106.064 145.01C106.803 145.01 107.383 144.778 107.805 144.315C108.232 143.846 108.446 143.219 108.446 142.434V137.064H109.976ZM112.454 134.858H113.983V137.064H115.759V138.321H113.983V143.753C113.983 144.169 114.074 144.476 114.256 144.676C114.438 144.869 114.725 144.966 115.117 144.966C115.363 144.966 115.574 144.951 115.75 144.922V146.205C115.551 146.252 115.229 146.275 114.783 146.275C113.945 146.275 113.348 146.088 112.99 145.713C112.633 145.338 112.454 144.711 112.454 143.832V138.321H111.092V137.064H112.454V134.858Z" fill="#313B57"/>
</svg>
