<svg width="171" height="171" viewBox="0 0 171 171" fill="none" xmlns="http://www.w3.org/2000/svg">
<rect width="171" height="171" rx="3" fill="#F5F7FB"/>
<path d="M104.414 33.6055V38H87.6094V12.6348H104.414V17.0117H92.918V23.1289H103.764V27.207H92.918V33.6055H104.414ZM113.326 38H108.246V12.6348H112.676L124.523 29.1582H124.664V12.6348H129.744V38H125.35L113.484 21.3887H113.326V38ZM156.656 27.3477C156.656 30.8047 155.66 33.5176 153.668 35.4863C151.688 37.4551 148.934 38.4395 145.406 38.4395C141.609 38.4395 138.621 37.2676 136.441 34.9238C134.273 32.5801 133.189 29.3516 133.189 25.2383C133.189 21.1836 134.268 17.9961 136.424 15.6758C138.592 13.3555 141.545 12.1953 145.283 12.1953C148.236 12.1953 150.738 12.9922 152.789 14.5859C154.84 16.1797 156.053 18.2598 156.428 20.8262H151.102C150.715 19.502 150.006 18.4648 148.975 17.7148C147.955 16.9648 146.73 16.5898 145.301 16.5898C143.203 16.5898 141.562 17.3457 140.379 18.8574C139.195 20.3691 138.604 22.4727 138.604 25.168C138.604 27.9102 139.219 30.0723 140.449 31.6543C141.691 33.2363 143.373 34.0273 145.494 34.0273C147.229 34.0273 148.641 33.541 149.73 32.5684C150.832 31.5957 151.412 30.3242 151.471 28.7539L151.488 28.3496H145.969V24.4824H156.656V27.3477Z" fill="#A0A4AF"/>
<path d="M45.2393 118.779V121.62H31.8213V100.483H45.2393V103.31H35.1025V109.492H44.6973V112.216H35.1025V118.779H45.2393ZM48.2275 121.62V106.21H51.2451V108.788H51.3184C51.748 107.89 52.373 107.192 53.1934 106.694C54.0137 106.196 55.0049 105.947 56.167 105.947C57.8564 105.947 59.1699 106.454 60.1074 107.47C61.0449 108.476 61.5137 109.868 61.5137 111.645V121.62H58.335V112.26C58.335 111.088 58.0566 110.2 57.5 109.594C56.9531 108.979 56.1377 108.671 55.0537 108.671C53.9404 108.671 53.0518 109.033 52.3877 109.755C51.7236 110.478 51.3916 111.44 51.3916 112.641V121.62H48.2275ZM71.1377 119.057C72.3779 119.057 73.3691 118.588 74.1113 117.651C74.8633 116.713 75.2393 115.453 75.2393 113.871C75.2393 112.289 74.8633 111.02 74.1113 110.063C73.3691 109.106 72.3779 108.627 71.1377 108.627C69.917 108.627 68.9404 109.101 68.208 110.048C67.4854 110.995 67.124 112.27 67.124 113.871C67.124 115.473 67.4854 116.738 68.208 117.665C68.9404 118.593 69.917 119.057 71.1377 119.057ZM71.167 127.421C69.3701 127.421 67.8467 126.992 66.5967 126.132C65.3564 125.273 64.6387 124.169 64.4434 122.822H67.6221C67.8467 123.466 68.2861 123.984 68.9404 124.374C69.6045 124.765 70.3857 124.96 71.2842 124.96C72.5049 124.96 73.4668 124.638 74.1699 123.994C74.873 123.359 75.2246 122.509 75.2246 121.445V118.911H75.166C74.7266 119.76 74.0723 120.434 73.2031 120.932C72.3438 121.43 71.3721 121.679 70.2881 121.679C68.3447 121.679 66.792 120.976 65.6299 119.57C64.4678 118.154 63.8867 116.249 63.8867 113.857C63.8867 111.435 64.4678 109.516 65.6299 108.1C66.8018 106.674 68.3789 105.961 70.3613 105.961C71.4453 105.961 72.417 106.22 73.2764 106.738C74.1357 107.245 74.7998 107.949 75.2686 108.847H75.3271V106.21H78.4033V121.342C78.4033 123.178 77.7441 124.648 76.4258 125.751C75.1172 126.865 73.3643 127.421 71.167 127.421ZM81.6553 121.62V100.483H84.8193V121.62H81.6553ZM88.1738 121.62V106.21H91.3379V121.62H88.1738ZM91.0596 103.427C90.6982 103.779 90.2637 103.954 89.7559 103.954C89.248 103.954 88.8135 103.779 88.4521 103.427C88.1006 103.076 87.9248 102.651 87.9248 102.153C87.9248 101.645 88.1006 101.215 88.4521 100.864C88.8135 100.512 89.248 100.336 89.7559 100.336C90.2734 100.336 90.708 100.512 91.0596 100.864C91.4209 101.215 91.6016 101.645 91.6016 102.153C91.6016 102.651 91.4209 103.076 91.0596 103.427ZM94.2969 110.576C94.2969 109.199 94.8535 108.08 95.9668 107.221C97.0801 106.362 98.5352 105.932 100.332 105.932C102.041 105.932 103.442 106.367 104.536 107.236C105.64 108.095 106.216 109.213 106.265 110.59H103.291C103.213 109.887 102.905 109.335 102.368 108.935C101.831 108.535 101.123 108.334 100.244 108.334C99.3848 108.334 98.6914 108.525 98.1641 108.906C97.6465 109.286 97.3877 109.78 97.3877 110.385C97.3877 111.323 98.1738 111.987 99.7461 112.377L102.339 112.978C103.892 113.349 104.99 113.857 105.635 114.501C106.289 115.136 106.616 116.025 106.616 117.167C106.616 118.574 106.021 119.716 104.829 120.595C103.647 121.474 102.109 121.913 100.215 121.913C98.4082 121.913 96.9336 121.484 95.791 120.624C94.6582 119.765 94.0283 118.622 93.9014 117.197H97.0361C97.1631 117.939 97.5098 118.51 98.0762 118.911C98.6426 119.301 99.4043 119.496 100.361 119.496C101.309 119.496 102.056 119.316 102.603 118.954C103.159 118.583 103.438 118.085 103.438 117.46C103.438 116.962 103.271 116.567 102.939 116.274C102.607 115.981 102.041 115.732 101.24 115.527L98.4863 114.853C95.6934 114.179 94.2969 112.753 94.2969 110.576ZM122.305 111.513H119.287C119.121 110.644 118.721 109.936 118.086 109.389C117.461 108.842 116.655 108.569 115.669 108.569C114.438 108.569 113.452 109.052 112.71 110.019C111.978 110.976 111.611 112.275 111.611 113.915C111.611 115.585 111.978 116.894 112.71 117.841C113.452 118.788 114.448 119.262 115.698 119.262C116.665 119.262 117.456 119.013 118.071 118.515C118.696 118.007 119.102 117.304 119.287 116.406H122.334C122.168 118.056 121.475 119.389 120.254 120.405C119.043 121.411 117.515 121.913 115.669 121.913C113.452 121.913 111.685 121.201 110.366 119.775C109.048 118.339 108.389 116.386 108.389 113.915C108.389 111.474 109.048 109.536 110.366 108.1C111.685 106.655 113.442 105.932 115.64 105.932C117.554 105.932 119.106 106.469 120.298 107.543C121.489 108.608 122.158 109.931 122.305 111.513ZM124.692 121.62V100.483H127.827V108.788H127.9C128.33 107.88 128.96 107.182 129.79 106.694C130.62 106.196 131.616 105.947 132.778 105.947C134.458 105.947 135.776 106.464 136.733 107.499C137.7 108.535 138.184 109.931 138.184 111.689V121.62H135.005V112.304C135.005 111.152 134.717 110.258 134.141 109.623C133.574 108.989 132.739 108.671 131.636 108.671C130.474 108.671 129.551 109.042 128.867 109.785C128.193 110.517 127.856 111.494 127.856 112.714V121.62H124.692Z" fill="black"/>
<path d="M51.0996 144.185H52.6904C52.7666 144.871 53.1006 145.422 53.6924 145.838C54.29 146.254 55.043 146.462 55.9512 146.462C56.8066 146.462 57.5127 146.26 58.0693 145.855C58.6318 145.445 58.9131 144.93 58.9131 144.308C58.9131 143.775 58.7168 143.336 58.3242 142.99C57.9375 142.644 57.3164 142.36 56.4609 142.138L54.835 141.716C53.6631 141.417 52.8076 141.001 52.2686 140.468C51.7295 139.929 51.46 139.228 51.46 138.367C51.46 137.312 51.876 136.451 52.708 135.783C53.5459 135.115 54.624 134.781 55.9424 134.781C57.2021 134.781 58.2451 135.121 59.0713 135.801C59.8975 136.474 60.3281 137.342 60.3633 138.402H58.7812C58.7109 137.723 58.418 137.186 57.9023 136.794C57.3867 136.401 56.7158 136.205 55.8896 136.205C55.0693 136.205 54.3984 136.398 53.877 136.785C53.3613 137.172 53.1035 137.676 53.1035 138.297C53.1035 138.777 53.291 139.173 53.666 139.483C54.0469 139.788 54.668 140.052 55.5293 140.274L56.8564 140.626C58.1689 140.954 59.1123 141.391 59.6865 141.935C60.2607 142.48 60.5479 143.207 60.5479 144.115C60.5479 145.275 60.1201 146.195 59.2646 146.875C58.415 147.549 57.2607 147.886 55.8018 147.886C54.4541 147.886 53.3525 147.549 52.4971 146.875C51.6416 146.201 51.1758 145.305 51.0996 144.185ZM65.8213 139.703C65.1123 139.703 64.5234 139.949 64.0547 140.441C63.5918 140.928 63.3369 141.555 63.29 142.322H68.2559C68.2383 141.549 68.0068 140.919 67.5615 140.432C67.1162 139.946 66.5361 139.703 65.8213 139.703ZM68.2207 145.056H69.7236C69.5889 145.864 69.167 146.529 68.458 147.051C67.7549 147.572 66.9082 147.833 65.918 147.833C64.6113 147.833 63.583 147.411 62.833 146.567C62.083 145.724 61.708 144.581 61.708 143.14C61.708 141.71 62.083 140.558 62.833 139.685C63.5889 138.812 64.5938 138.376 65.8477 138.376C67.0781 138.376 68.0508 138.789 68.7656 139.615C69.4805 140.441 69.8379 141.549 69.8379 142.937V143.517H63.2812V143.605C63.2812 144.484 63.5215 145.187 64.002 145.715C64.4824 146.242 65.1328 146.506 65.9531 146.506C66.5273 146.506 67.0166 146.374 67.4209 146.11C67.8252 145.847 68.0918 145.495 68.2207 145.056ZM71.4639 147.675V134.992H72.9932V139.993H73.0283C73.2861 139.477 73.6611 139.079 74.1533 138.798C74.6514 138.516 75.2432 138.376 75.9287 138.376C76.9248 138.376 77.71 138.683 78.2842 139.299C78.8584 139.914 79.1455 140.737 79.1455 141.768V147.675H77.6162V142.05C77.6162 141.311 77.4316 140.74 77.0625 140.336C76.6992 139.932 76.1631 139.729 75.4541 139.729C74.6982 139.729 74.0977 139.967 73.6523 140.441C73.2129 140.916 72.9932 141.552 72.9932 142.349V147.675H71.4639ZM81.0879 147.675V138.534H82.5293V140.028H82.5645C82.7168 139.518 82.9893 139.117 83.3818 138.824C83.7803 138.525 84.2461 138.376 84.7793 138.376C84.9023 138.376 85.1074 138.396 85.3945 138.437V139.923C85.2305 139.864 84.958 139.835 84.5771 139.835C83.9854 139.835 83.5107 140.031 83.1533 140.424C82.7959 140.816 82.6172 141.335 82.6172 141.979V147.675H81.0879ZM101.268 142.428C101.268 144.144 100.793 145.483 99.8438 146.444C98.9004 147.405 97.582 147.886 95.8887 147.886C94.1191 147.886 92.707 147.288 91.6523 146.093C90.6035 144.891 90.0791 143.283 90.0791 141.267C90.0791 139.287 90.6035 137.711 91.6523 136.539C92.7012 135.367 94.1133 134.781 95.8887 134.781C97.2598 134.781 98.4258 135.159 99.3867 135.915C100.354 136.665 100.954 137.67 101.188 138.93H99.5273C99.2637 138.074 98.8125 137.412 98.1738 136.943C97.541 136.474 96.7793 136.24 95.8887 136.24C94.582 136.24 93.5566 136.685 92.8125 137.576C92.0742 138.461 91.7051 139.688 91.7051 141.259C91.7051 142.852 92.0801 144.112 92.8301 145.038C93.5801 145.964 94.5996 146.427 95.8887 146.427C97.0137 146.427 97.9277 146.096 98.6309 145.433C99.334 144.766 99.6855 143.901 99.6855 142.841V142.612H96.1084V141.224H101.268V142.428ZM110.566 138.534V147.675H109.116V146.189H109.081C108.513 147.285 107.546 147.833 106.181 147.833C105.19 147.833 104.414 147.534 103.852 146.936C103.295 146.333 103.017 145.51 103.017 144.467V138.534H104.546V144.194C104.546 145.718 105.249 146.479 106.655 146.479C107.394 146.479 107.974 146.248 108.396 145.785C108.823 145.316 109.037 144.689 109.037 143.904V138.534H110.566ZM113.045 136.328H114.574V138.534H116.35V139.791H114.574V145.223C114.574 145.639 114.665 145.946 114.847 146.145C115.028 146.339 115.315 146.435 115.708 146.435C115.954 146.435 116.165 146.421 116.341 146.391V147.675C116.142 147.722 115.819 147.745 115.374 147.745C114.536 147.745 113.938 147.557 113.581 147.182C113.224 146.807 113.045 146.181 113.045 145.302V139.791H111.683V138.534H113.045V136.328Z" fill="#313B57"/>
</svg>
