<svg width="70" height="70" viewBox="0 0 70 70" fill="none" xmlns="http://www.w3.org/2000/svg">
<path fill-rule="evenodd" clip-rule="evenodd" d="M70 3C70 1.34315 68.6569 0 67 0H3C1.34315 0 0 1.34315 0 3V67C0 68.6569 1.34315 70 3 70H67C68.6569 70 70 68.6569 70 67V3ZM48.5057 24.0391C46.9634 25.5813 44.8717 26.4478 42.6906 26.4478H37.4619C35.8051 26.4478 34.4619 27.7909 34.4619 29.4478V51.1143C34.461 52.7407 33.9777 54.3306 33.0733 55.6824C32.1689 57.0342 30.8839 58.0876 29.3808 58.7092C27.8777 59.3308 26.2241 59.4927 24.629 59.1743C23.0339 58.8562 21.569 58.072 20.4196 56.9211C19.2701 55.7705 18.4877 54.3047 18.1714 52.7092C17.855 51.1138 18.0188 49.4602 18.6421 47.958C19.2654 46.4556 20.3203 45.1719 21.6732 44.269C23.0261 43.3662 24.6164 42.8848 26.2429 42.8857C24.0618 42.8857 21.9701 42.0193 20.4278 40.4771C18.8855 38.9348 18.0191 36.843 18.0191 34.6619C18.0191 32.4807 18.8855 30.3889 20.4278 28.8467C21.9701 27.3044 24.0618 26.438 26.2429 26.438C24.0631 26.438 21.9726 25.572 20.4312 24.0308C18.8898 22.4893 18.0239 20.3989 18.0239 18.219C18.0239 16.0393 18.8898 13.9487 20.4312 12.4072C21.9726 10.866 24.0631 10 26.2429 10H42.6906C44.8717 10 46.9634 10.8665 48.5057 12.4087C50.048 13.9509 50.9144 16.0427 50.9144 18.2239C50.9144 20.405 50.048 22.4966 48.5057 24.0391ZM42.6906 26.4478C44.8703 26.448 46.9607 27.314 48.502 28.8552C50.0433 30.3965 50.9094 32.4868 50.9096 34.6667C50.9096 36.2922 50.4276 37.8813 49.5244 39.2329C48.6213 40.5845 47.3377 41.6379 45.8359 42.26C44.334 42.8821 42.6815 43.0449 41.0872 42.7278C39.4928 42.4106 38.0283 41.6279 36.8789 40.4783C35.7294 39.3289 34.9466 37.8645 34.6295 36.27C34.3124 34.6758 34.4751 33.0232 35.0972 31.5215C35.7193 30.0195 36.7727 28.7358 38.1244 27.8328C39.476 26.9297 41.065 26.4478 42.6906 26.4478Z" fill="#313B57"/>
</svg>
