<svg width="70" height="70" viewBox="0 0 70 70" fill="none" xmlns="http://www.w3.org/2000/svg">
<path fill-rule="evenodd" clip-rule="evenodd" d="M3 0C1.34314 0 0 1.34326 0 3V67C0 68.6567 1.34314 70 3 70H67C68.6569 70 70 68.6567 70 67V3C70 1.34326 68.6569 0 67 0H3ZM36.9594 13.8311L56.1702 33.0408C57.2766 34.1472 57.2766 35.9429 56.17 37.0498L37.0488 56.1707C35.9413 57.2771 34.1473 57.2771 33.0413 56.1707L13.8301 36.9604C12.7233 35.854 12.7233 34.0593 13.8301 32.9521L27.0027 19.7803L31.9911 24.7693C31.4799 25.9946 31.7198 27.459 32.7177 28.4553C33.0325 28.7722 33.4078 29.0225 33.8213 29.1912V41.2717C33.4084 41.4417 33.0333 41.6917 32.7177 42.0073C31.4006 43.324 31.4006 45.4578 32.7177 46.7764C34.0332 48.0933 36.1681 48.0933 37.4855 46.7764C38.8026 45.4578 38.8026 43.3237 37.4855 42.0073C37.2246 41.748 36.9235 41.5327 36.5938 41.3696L36.5943 29.4006L41.1425 33.949C40.6409 35.1694 40.8857 36.6243 41.8764 37.616C43.1945 38.9336 45.3283 38.9336 46.6458 37.616C47.9628 36.2986 47.9628 34.1648 46.6458 32.8481C45.7034 31.9043 44.3419 31.6414 43.162 32.0479L38.285 27.1707C38.6921 25.991 38.4274 24.6309 37.4855 23.6875C36.5481 22.75 35.1995 22.4834 34.0236 22.8809L28.9631 17.8203L32.9523 13.8311C34.0593 12.7249 35.8537 12.7249 36.9594 13.8311Z" fill="#313B57"/>
</svg>
