<svg width="70" height="70" viewBox="0 0 70 70" fill="none" xmlns="http://www.w3.org/2000/svg">
<path d="M69.475 0H0.525C0.23505 0 0 0.23505 0 0.525V69.475C0 69.7649 0.23505 70 0.525 70H69.475C69.7649 70 70 69.7649 70 69.475V0.525C70 0.23505 69.7649 0 69.475 0Z" fill="#313B57"/>
<path d="M18.2441 14.2858L11.6989 17.4704V17.5702L18.2441 20.6549V23.5599L8.75 18.6783V16.4321L18.2441 11.3808V14.2858Z" fill="white"/>
<path d="M26.8315 26.425H24.1416L29.2523 8.92499H31.9322L26.8315 26.425Z" fill="white"/>
<path d="M33.7949 14.2758V11.3808L43.289 16.4221V18.6783L33.7949 23.5499V20.6449L40.3303 17.5702V17.4704L33.7949 14.2758Z" fill="white"/>
<path d="M42.6929 51.7953C43.6386 51.8977 44.3589 52.1833 44.8538 52.6517C45.3487 53.113 45.5963 53.7388 45.5963 54.5295V56.7807C45.5963 57.5566 45.7403 58.1058 46.0284 58.4278C46.3239 58.7573 46.8225 58.922 47.5244 58.922H48.012V61.25H47.1919C45.5518 61.25 44.3625 60.9207 43.6237 60.2618C42.885 59.6029 42.5156 58.5487 42.5156 57.0992V55.3861C42.5156 54.5808 42.3161 54.0097 41.9173 53.673C41.5183 53.329 40.8461 53.1533 39.9004 53.1459V50.0931C40.8461 50.0859 41.5183 49.9139 41.9173 49.577C42.3161 49.2329 42.5156 48.6582 42.5156 47.8531V46.0961C42.5156 44.6611 42.885 43.6216 43.6237 42.9774C44.3625 42.3259 45.5518 42 47.1919 42H48.012V44.328H47.5244C46.8225 44.328 46.3239 44.4927 46.0284 44.8222C45.7403 45.1442 45.5963 45.6934 45.5963 46.4693V48.7095C45.5963 49.5002 45.3487 50.1298 44.8538 50.5983C44.3589 51.0594 43.6386 51.3413 42.6929 51.4439V51.7953Z" fill="white"/>
<path d="M58.3846 51.7953V51.4439C57.4389 51.3413 56.7186 51.0594 56.2237 50.5983C55.7286 50.1298 55.4811 49.5002 55.4811 48.7095V46.4693C55.4811 45.6934 55.3334 45.1442 55.0379 44.8222C54.7498 44.4927 54.2549 44.328 53.553 44.328H53.0654V42H53.8855C55.5329 42 56.7259 42.3259 57.4648 42.9774C58.2034 43.6216 58.5729 44.6611 58.5729 46.0961V47.8531C58.5729 48.6582 58.7687 49.2329 59.1602 49.577C59.5592 49.9139 60.2313 50.0859 61.177 50.0931V53.1459C60.224 53.1533 59.5518 53.3253 59.1602 53.662C58.7687 53.9987 58.5729 54.5697 58.5729 55.3751V57.0553C58.5729 58.5193 58.1998 59.5845 57.4537 60.2508C56.7149 60.917 55.5256 61.25 53.8855 61.25H53.0654V58.922H53.553C54.2474 58.922 54.7425 58.7573 55.0379 58.4278C55.3334 58.1058 55.4811 57.5603 55.4811 56.7917V54.5405C55.4811 53.7425 55.7286 53.113 56.2237 52.6517C56.7259 52.1833 57.4462 51.8977 58.3846 51.7953Z" fill="white"/>
</svg>
