<svg width="70" height="70" viewBox="0 0 70 70" fill="none" xmlns="http://www.w3.org/2000/svg">
<path d="M69.475 0H0.525C0.23505 0 0 0.23505 0 0.525V69.475C0 69.7649 0.23505 70 0.525 70H69.475C69.7649 70 70 69.7649 70 69.475V0.525C70 0.23505 69.7649 0 69.475 0Z" fill="#313B57"/>
<path d="M28.3496 54.8715H32.457C32.4758 55.694 32.7281 56.3528 33.2141 56.8481C33.7095 57.3435 34.3542 57.5912 35.1487 57.5912C36.0365 57.5912 36.7094 57.3248 37.1673 56.7921C37.6346 56.2594 37.8684 55.4836 37.8684 54.4649V40.6006H42.102V54.4931C42.102 56.6332 41.4944 58.2967 40.2795 59.4838C39.0645 60.6613 37.3682 61.25 35.1907 61.25C33.1254 61.25 31.4664 60.6706 30.2141 59.5118C28.971 58.3529 28.3496 56.8061 28.3496 54.8715Z" fill="white"/>
<path d="M44.8779 55.0678H48.9573C49.0508 55.8901 49.4853 56.5584 50.2611 57.0724C51.0462 57.5771 52.0041 57.8295 53.135 57.8295C54.2564 57.8295 55.1676 57.5911 55.8686 57.1144C56.5788 56.6284 56.934 56.0117 56.934 55.264C56.934 54.6098 56.6722 54.0818 56.149 53.6799C55.6255 53.2781 54.7518 52.9415 53.5275 52.6706L50.892 52.0957C47.1816 51.3014 45.3265 49.4183 45.3265 46.4462C45.3265 44.5958 46.0461 43.1004 47.4854 41.9603C48.9341 40.8201 50.7938 40.25 53.0648 40.25C55.4012 40.25 57.2658 40.8062 58.6583 41.9183C60.0508 43.021 60.7658 44.493 60.8031 46.334H56.8359C56.7704 45.4837 56.3919 44.8154 55.7003 44.3294C55.0181 43.8342 54.1444 43.5864 53.0788 43.5864C52.0321 43.5864 51.1863 43.8154 50.5415 44.2734C49.906 44.7312 49.5882 45.3341 49.5882 46.0817C49.5882 46.6986 49.8451 47.1985 50.3593 47.5818C50.8825 47.9649 51.7283 48.2921 52.8966 48.563L55.3499 49.0817C57.378 49.5117 58.8545 50.1846 59.7797 51.1005C60.7051 52.007 61.1676 53.2313 61.1676 54.7734C61.1676 56.736 60.4293 58.2967 58.9526 59.4555C57.476 60.6051 55.4807 61.1798 52.9668 61.1798C50.5275 61.1798 48.5835 60.6379 47.1349 59.5537C45.6957 58.4603 44.9434 56.965 44.8779 55.0678Z" fill="white"/>
</svg>
