<svg width="70" height="70" viewBox="0 0 70 70" fill="none" xmlns="http://www.w3.org/2000/svg">
<path d="M69.475 0H0.525C0.23505 0 0 0.23505 0 0.525V69.475C0 69.7649 0.23505 70 0.525 70H69.475C69.7649 70 70 69.7649 70 69.475V0.525C70 0.23505 69.7649 0 69.475 0Z" fill="#313B57"/>
<path d="M30.6955 48.0757C32.1555 48.0757 33.3044 48.6017 34.1418 49.6538C34.9863 50.7059 35.4086 52.159 35.4086 54.0127C35.4086 55.8593 34.9935 57.3124 34.1633 58.3716C33.3329 59.4237 32.1949 59.95 30.7492 59.95C29.926 59.95 29.1996 59.7638 28.5698 59.3915C27.9469 59.0123 27.4818 58.4933 27.174 57.8349H27.1096V63.525H23.9746V48.2582H27.0667V50.2658H27.1311C27.4459 49.5788 27.9112 49.0419 28.5267 48.6555C29.1495 48.2689 29.8723 48.0757 30.6955 48.0757ZM29.6434 57.4268C30.4235 57.4268 31.0427 57.1192 31.5007 56.5035C31.966 55.888 32.1986 55.0578 32.1986 54.0127C32.1986 52.9678 31.966 52.1374 31.5007 51.522C31.0427 50.8993 30.4235 50.588 29.6434 50.588C28.8774 50.588 28.2619 50.9028 27.7966 51.5326C27.3315 52.1555 27.0989 52.9822 27.0989 54.0127C27.0989 55.0507 27.328 55.8809 27.7859 56.5035C28.2513 57.1192 28.8702 57.4268 29.6434 57.4268Z" fill="white"/>
<path d="M37.1055 59.7674V44.275H40.1867V50.3089H40.2511C40.5589 49.5788 41.0206 49.0205 41.636 48.6339C42.2589 48.2402 43.0031 48.0435 43.8692 48.0435C45.136 48.0435 46.1202 48.4299 46.8216 49.203C47.5302 49.9688 47.8846 51.0209 47.8846 52.3593V59.7674H44.7496V53.025C44.7496 52.2736 44.5634 51.6901 44.1912 51.275C43.8263 50.8528 43.2931 50.6415 42.5915 50.6415C41.8616 50.6415 41.2853 50.8778 40.8631 51.3501C40.448 51.8154 40.2404 52.4309 40.2404 53.1969V59.7674H37.1055Z" fill="white"/>
<path d="M56.6135 48.0757C58.0737 48.0757 59.2224 48.6017 60.0597 49.6538C60.9045 50.7059 61.3267 52.159 61.3267 54.0127C61.3267 55.8593 60.9115 57.3124 60.0813 58.3716C59.2511 59.4237 58.113 59.95 56.6672 59.95C55.844 59.95 55.1176 59.7638 54.4877 59.3915C53.8651 59.0123 53.3998 58.4933 53.0919 57.8349H53.0275V63.525H49.8926V48.2582H52.9847V50.2658H53.0491C53.3641 49.5788 53.8292 49.0419 54.4447 48.6555C55.0675 48.2689 55.7904 48.0757 56.6135 48.0757ZM55.5614 57.4268C56.3415 57.4268 56.9607 57.1192 57.4186 56.5035C57.884 55.888 58.1165 55.0578 58.1165 54.0127C58.1165 52.9678 57.884 52.1374 57.4186 51.522C56.9607 50.8993 56.3415 50.588 55.5614 50.588C54.7956 50.588 54.1799 50.9028 53.7148 51.5326C53.2494 52.1555 53.0169 52.9822 53.0169 54.0127C53.0169 55.0507 53.2459 55.8809 53.7039 56.5035C54.1692 57.1192 54.7884 57.4268 55.5614 57.4268Z" fill="white"/>
</svg>
