<svg width="70" height="70" viewBox="0 0 70 70" fill="none" xmlns="http://www.w3.org/2000/svg">
<path fill-rule="evenodd" clip-rule="evenodd" d="M70 70H0V0H70V70ZM55.5639 29.6699V24.2408C54.6697 23.8427 49.5495 22.378 45.5044 23.9215C39.6774 26.1449 39.8867 32.8427 42.0979 35.4714C44.9628 38.8773 52.0896 40.1472 50.9234 43.4902C50.3195 45.2214 47.5002 45.5227 45.0146 44.9415C42.7 44.4004 40.6875 43.0294 40.6875 43.0294V48.7777C40.6875 48.7777 42.6768 49.8868 45.1183 50.1506C48.2482 50.4887 52.1715 49.8503 54.1369 48.1033C57.6356 44.9933 58.1729 38.1041 51.5427 34.905C46.0254 32.2431 46.1162 31.4833 46.1549 30.1179C46.2068 28.2892 50.0464 27.1634 55.5639 29.6699ZM25.8111 14.4341C30.4017 14.5938 37.1481 16.7095 37.1481 25.7312C37.1481 34.7528 28.8939 37.7132 21.3622 37.0681V49.8422H15.7514V14.5537C15.7514 14.5537 21.2203 14.2744 25.811 14.4341H25.8111ZM27.2681 31.4795C29.6875 30.5967 31.2601 28.6989 31.2601 25.751C31.2601 22.6255 29.6598 20.5089 27.2122 19.911C24.5618 19.2634 21.3622 19.6451 21.3622 19.6451V31.9558C21.3622 31.9558 25.7912 32.0184 27.2681 31.4795Z" fill="#313B57"/>
</svg>
