<svg width="70" height="70" viewBox="0 0 70 70" fill="none" xmlns="http://www.w3.org/2000/svg">
<path d="M69.475 0H0.525C0.23505 0 0 0.23505 0 0.525V69.475C0 69.7649 0.23505 70 0.525 70H69.475C69.7649 70 70 69.7649 70 69.475V0.525C70 0.23505 69.7649 0 69.475 0Z" fill="#313B57"/>
<path d="M10.2143 14.3339C10.7101 14.3881 11.0878 14.5392 11.3473 14.7871C11.6069 15.0312 11.7366 15.3624 11.7366 15.7807V16.9719C11.7366 17.3825 11.8121 17.673 11.9632 17.8435C12.1182 18.0178 12.3797 18.1049 12.7477 18.1049H13.0033V19.3368H12.5733C11.7134 19.3368 11.0897 19.1625 10.7023 18.8139C10.315 18.4653 10.1213 17.9074 10.1213 17.1404V16.2339C10.1213 15.8078 10.0167 15.5057 9.80752 15.3275C9.59835 15.1454 9.24583 15.0525 8.75 15.0486V13.4333C9.24583 13.4294 9.59835 13.3383 9.80752 13.1602C10.0167 12.9781 10.1213 12.674 10.1213 12.2479V11.3182C10.1213 10.559 10.315 10.0089 10.7023 9.66802C11.0897 9.32325 11.7134 9.15088 12.5733 9.15088H13.0033V10.3827H12.7477C12.3797 10.3827 12.1182 10.4699 11.9632 10.6442C11.8121 10.8146 11.7366 11.1052 11.7366 11.5158V12.7011C11.7366 13.1195 11.6069 13.4526 11.3473 13.7005C11.0878 13.9446 10.7101 14.0937 10.2143 14.148V14.3339Z" fill="white"/>
<path d="M17.786 11.3066V17.826C17.786 18.4574 17.5961 18.9359 17.2165 19.2612C16.8369 19.5867 16.2829 19.7494 15.5547 19.7494C15.3455 19.7494 15.1906 19.7416 15.0898 19.7262V18.4768C15.1441 18.4845 15.2157 18.4884 15.3048 18.4884C15.5876 18.4884 15.7891 18.4322 15.9091 18.32C16.0292 18.2115 16.0893 18.0313 16.0893 17.7796V11.3066H17.786ZM17.5826 10.3653C17.4083 10.5358 17.1933 10.621 16.9376 10.621C16.6819 10.621 16.467 10.5358 16.2926 10.3653C16.1183 10.1949 16.0312 9.98765 16.0312 9.74359C16.0312 9.49569 16.1183 9.28843 16.2926 9.12187C16.467 8.95142 16.6819 8.86621 16.9376 8.86621C17.1933 8.86621 17.4083 8.95142 17.5826 9.12187C17.7569 9.28843 17.8441 9.49569 17.8441 9.74359C17.8441 9.98765 17.7569 10.1949 17.5826 10.3653Z" fill="white"/>
<path d="M18.8142 13.1369C18.8142 12.5443 19.0524 12.0697 19.5289 11.7134C20.0053 11.3531 20.6426 11.173 21.4406 11.173C22.2192 11.173 22.8448 11.355 23.3173 11.7192C23.79 12.0833 24.032 12.5675 24.0437 13.1718H22.4806C22.4612 12.92 22.3567 12.7225 22.1668 12.5791C21.981 12.4358 21.7311 12.3641 21.4173 12.3641C21.123 12.3641 20.8866 12.4261 20.7084 12.5501C20.5341 12.6702 20.4469 12.8309 20.4469 13.0324C20.4469 13.3345 20.718 13.5495 21.2603 13.6773L22.4516 13.933C23.0753 14.0724 23.5226 14.2758 23.7938 14.5431C24.0689 14.8065 24.2063 15.1706 24.2063 15.6355C24.2063 16.2475 23.9506 16.7395 23.4394 17.1114C22.9281 17.4832 22.2598 17.6692 21.4346 17.6692C20.6136 17.6692 19.957 17.4871 19.465 17.123C18.9729 16.7589 18.7038 16.2688 18.6572 15.6529H20.3132C20.3559 15.9163 20.476 16.1197 20.6736 16.263C20.875 16.4064 21.1442 16.478 21.4812 16.478C21.8027 16.478 22.0545 16.4199 22.2365 16.3037C22.4225 16.1836 22.5154 16.0209 22.5154 15.8156C22.5154 15.6568 22.4573 15.5309 22.3411 15.4379C22.2249 15.3411 22.0274 15.2597 21.7484 15.1939L20.598 14.9382C19.4089 14.667 18.8142 14.0666 18.8142 13.1369Z" fill="white"/>
<path d="M29.1277 12.6489L27.7854 11.7134L27.9308 13.3403H26.8733L27.0186 11.7134L25.6705 12.6547L25.1475 11.7192L26.6117 11.051L25.1475 10.3711L25.6705 9.44146L27.0068 10.3595L26.8733 8.75H27.9366L27.7971 10.3537L29.1277 9.43565L29.6623 10.3711L28.1806 11.051L29.6623 11.7192L29.1277 12.6489Z" fill="white"/>
<path d="M35.5714 14.3339V14.148C35.0754 14.0937 34.6978 13.9446 34.4383 13.7005C34.1787 13.4526 34.0489 13.1195 34.0489 12.7011V11.5158C34.0489 11.1052 33.9715 10.8146 33.8165 10.6442C33.6655 10.4699 33.4059 10.3827 33.0379 10.3827H32.7822V9.15088H33.2122C34.076 9.15088 34.7016 9.32325 35.0891 9.66802C35.4763 10.0089 35.6701 10.559 35.6701 11.3182V12.2479C35.6701 12.674 35.7728 12.9781 35.9781 13.1602C36.1872 13.3383 36.5396 13.4294 37.0356 13.4333V15.0486C36.5358 15.0525 36.1833 15.1435 35.9781 15.3217C35.7728 15.4999 35.6701 15.802 35.6701 16.2281V17.1171C35.6701 17.892 35.4744 18.4555 35.0833 18.8081C34.6959 19.1605 34.0722 19.3368 33.2122 19.3368H32.7822V18.1049H33.0379C33.4021 18.1049 33.6616 18.0178 33.8165 17.8435C33.9715 17.673 34.0489 17.3844 34.0489 16.9777V15.7865C34.0489 15.3643 34.1787 15.0312 34.4383 14.7871C34.7016 14.5392 35.0793 14.3881 35.5714 14.3339Z" fill="white"/>
<path d="M28.7959 46.6057C28.7959 49.0473 31.1815 51.3265 34.9424 52.6111C34.1913 56.3897 34.8078 59.4354 36.8667 60.6221C38.9832 61.8419 42.136 60.9975 45.1285 58.3832C48.0456 60.892 50.9936 61.8793 53.0509 60.6891C55.1652 59.4659 55.8082 56.2139 55.0364 52.3171C58.9536 51.0228 61.1448 49.0795 61.1448 46.6057C61.1448 44.2208 58.755 42.1577 55.0447 40.8812C55.8756 36.8237 55.1715 33.852 53.0273 32.6162C50.9602 31.4249 47.9776 32.4632 45.0179 35.0376C41.9384 32.3052 38.9854 31.471 36.8434 32.7101C34.7783 33.9049 34.1889 37.006 34.9424 40.8545C31.3084 42.1206 28.7959 44.2306 28.7959 46.6057Z" fill="#313B57"/>
<path d="M54.2587 42.1487C53.9528 42.0439 53.6444 41.9468 53.3338 41.8575C53.3852 41.6484 53.433 41.4382 53.4768 41.2272C54.1768 37.8309 53.719 35.095 52.1559 34.1944C50.6573 33.3306 48.2063 34.2312 45.7307 36.384C45.4868 36.5967 45.2483 36.8154 45.0155 37.0401C44.8596 36.8907 44.7009 36.7442 44.5395 36.6007C41.9451 34.2986 39.3446 33.3285 37.7831 34.2319C36.286 35.098 35.8425 37.6703 36.4727 40.8887C36.5354 41.2076 36.6062 41.5247 36.685 41.8397C36.3171 41.9441 35.9617 42.0554 35.6217 42.1739C32.5802 43.2337 30.6377 44.8946 30.6377 46.6173C30.6377 48.3967 32.7228 50.1816 35.891 51.2636C36.1479 51.3509 36.4069 51.4319 36.6678 51.5063C36.5831 51.8458 36.5079 52.1878 36.4423 52.5315C35.8413 55.6941 36.3107 58.2053 37.8039 59.0661C39.3462 59.955 41.9348 59.0413 44.4557 56.8393C44.6548 56.6651 44.8549 56.4805 45.0551 56.2871C45.3074 56.5302 45.5662 56.7665 45.8317 56.9952C48.2733 59.095 50.6848 59.9429 52.1769 59.0796C53.7177 58.1882 54.2184 55.4905 53.5683 52.2082C53.5186 51.9576 53.4608 51.7016 53.3959 51.4409C53.5777 51.3871 53.7562 51.3318 53.9302 51.2741C57.2237 50.1837 59.3664 48.4205 59.3664 46.6173C59.3664 44.8883 57.3614 43.2162 54.2587 42.1487Z" fill="white"/>
<path d="M53.5446 50.1098C53.3874 50.1618 53.2263 50.212 53.0619 50.2607C52.6985 49.1104 52.2076 47.8872 51.6072 46.6235C52.1803 45.3897 52.6519 44.1822 53.0054 43.0393C53.2992 43.1244 53.5845 43.214 53.8594 43.3086C56.518 44.2232 58.1396 45.5754 58.1396 46.6174C58.1396 47.7274 56.3882 49.1682 53.5446 50.1098ZM52.3646 52.4464C52.6521 53.8979 52.6932 55.21 52.5026 56.2359C52.3317 57.1576 51.9876 57.772 51.5622 58.0183C50.6567 58.542 48.7205 57.8611 46.6324 56.0654C46.393 55.8596 46.1519 55.6398 45.91 55.4073C46.7196 54.5225 47.5286 53.4936 48.3182 52.3514C49.707 52.2282 51.0192 52.0268 52.2092 51.752C52.2676 51.9883 52.3198 52.22 52.3646 52.4464ZM40.4322 57.9278C39.5477 58.24 38.8432 58.2487 38.4174 58.0034C37.5111 57.4812 37.1345 55.4647 37.6483 52.76C37.7094 52.4405 37.7794 52.1227 37.8581 51.8068C39.0348 52.067 40.3373 52.2541 41.7296 52.367C42.5243 53.4847 43.3568 54.5121 44.1957 55.412C44.0174 55.5844 43.8349 55.7522 43.6483 55.9156C42.5336 56.8895 41.4166 57.5802 40.4322 57.9278ZM36.2884 50.103C34.8875 49.6246 33.7306 49.0026 32.9375 48.3241C32.225 47.7143 31.8652 47.1088 31.8652 46.6174C31.8652 45.5721 33.4248 44.2384 36.026 43.3321C36.3526 43.2189 36.6823 43.1153 37.015 43.0211C37.3744 44.1898 37.846 45.4116 38.4151 46.6473C37.8387 47.9013 37.3604 49.1426 36.9975 50.3249C36.7593 50.2568 36.5229 50.1828 36.2884 50.103ZM37.6775 40.6532C37.1375 37.8955 37.496 35.8153 38.3983 35.2933C39.3596 34.7373 41.4848 35.5302 43.7248 37.5179C43.868 37.6449 44.0116 37.7779 44.1558 37.9157C43.3213 38.8113 42.4965 39.831 41.7085 40.9423C40.3573 41.0674 39.0639 41.2685 37.8749 41.5376C37.8016 41.2445 37.7358 40.9498 37.6775 40.6532ZM50.0698 43.7113C49.7889 43.2264 49.4975 42.7478 49.1962 42.2754C50.1128 42.3911 50.991 42.5448 51.8156 42.7331C51.5681 43.526 51.2594 44.3553 50.8961 45.2053C50.6307 44.7018 50.355 44.2038 50.0698 43.7113ZM45.0161 38.7921C45.5823 39.4049 46.1491 40.0893 46.7068 40.8317C45.5756 40.7783 44.4425 40.7781 43.3113 40.831C43.8694 40.0955 44.4413 39.4121 45.0161 38.7921ZM39.9301 43.7197C39.6484 44.2081 39.378 44.7032 39.1192 45.2044C38.7618 44.3572 38.4561 43.5244 38.2064 42.7201C39.0261 42.5367 39.9002 42.3869 40.8109 42.2732C40.506 42.7485 40.2124 43.2308 39.9301 43.7197ZM40.8371 51.0492C39.8962 50.9442 39.0089 50.802 38.1894 50.6238C38.4431 49.8052 38.7557 48.9543 39.1206 48.0891C39.3804 48.5907 39.652 49.0859 39.9352 49.5747C40.2239 50.0733 40.5248 50.5648 40.8371 51.0492ZM45.0501 54.5293C44.4684 53.9021 43.8883 53.2082 43.3216 52.462C43.8716 52.4835 44.4325 52.4946 45.0025 52.4946C45.588 52.4946 46.1669 52.4814 46.7366 52.4561C46.1773 53.2159 45.6124 53.9107 45.0501 54.5293ZM50.9079 48.045C51.2918 48.9197 51.6156 49.766 51.8726 50.5706C51.0395 50.7607 50.1403 50.9136 49.1927 51.0272C49.4963 50.5461 49.7903 50.0589 50.0747 49.5663C50.3636 49.0654 50.6415 48.5581 50.9079 48.045ZM49.0116 48.9534C48.5763 49.7091 48.1166 50.4502 47.6333 51.1759C46.7808 51.2367 45.9001 51.2682 45.0025 51.2682C44.1084 51.2682 43.2388 51.2403 42.4013 51.1861C41.9053 50.4621 41.437 49.7196 40.9973 48.9603C40.5596 48.205 40.1508 47.4332 39.7716 46.6469C40.1497 45.8603 40.5573 45.0882 40.9936 44.3322C41.4297 43.576 41.8943 42.8372 42.3866 42.1162C43.2409 42.0516 44.117 42.0178 45.0025 42.0178C45.892 42.0178 46.7691 42.052 47.6233 42.1171C48.1107 42.8368 48.5723 43.5734 49.0075 44.3257C49.4452 45.08 49.8584 45.8484 50.246 46.6294C49.8622 47.4185 49.4506 48.1938 49.0116 48.9534ZM51.5433 35.2569C52.5053 35.8115 52.8794 38.0474 52.275 40.9796C52.2354 41.1707 52.1924 41.3609 52.1458 41.5504C50.9541 41.2757 49.6596 41.0711 48.3046 40.9439C47.5151 39.8205 46.6972 38.7991 45.8761 37.915C46.0913 37.7076 46.3117 37.5058 46.5367 37.3093C48.6577 35.4646 50.6401 34.7363 51.5433 35.2569Z" fill="#313B57"/>
<path d="M45.0028 44.0536C46.4198 44.0536 47.5681 45.2017 47.5681 46.6174C47.5681 48.0335 46.4198 49.1813 45.0028 49.1813C43.5862 49.1813 42.4375 48.0335 42.4375 46.6174C42.4375 45.2017 43.5862 44.0536 45.0028 44.0536Z" fill="white"/>
</svg>
