<svg width="171" height="171" viewBox="0 0 171 171" fill="none" xmlns="http://www.w3.org/2000/svg">
<rect width="171" height="171" rx="3" fill="#313B57"/>
<path d="M118.671 21.9338V30.0198H123.241C124.577 30.0198 125.614 29.6624 126.353 28.9475C127.103 28.2327 127.478 27.2424 127.478 25.9768C127.478 24.7463 127.091 23.7678 126.317 23.0413C125.544 22.303 124.501 21.9338 123.188 21.9338H118.671ZM118.671 33.8694V43.1506H113.362V17.7854H123.751C126.646 17.7854 128.896 18.5061 130.501 19.9475C132.118 21.3772 132.927 23.3518 132.927 25.8713C132.927 27.5237 132.517 29.0002 131.696 30.301C130.888 31.5901 129.763 32.5159 128.321 33.0784L133.665 43.1506H127.653L122.925 33.8694H118.671ZM141.733 17.7854V33.6584C141.733 35.3108 142.196 36.6233 143.122 37.5959C144.06 38.5569 145.372 39.0374 147.06 39.0374C148.735 39.0374 150.036 38.5569 150.962 37.5959C151.899 36.6233 152.368 35.3108 152.368 33.6584V17.7854H157.677V34.1858C157.677 36.9983 156.71 39.2717 154.776 41.0061C152.854 42.7288 150.282 43.5901 147.06 43.5901C143.825 43.5901 141.241 42.7288 139.308 41.0061C137.386 39.2717 136.425 36.9983 136.425 34.1858V17.7854H141.733Z" fill="#8C909B"/>
<path d="M28.9219 101.177V108.779H33.5215C34.791 108.779 35.7725 108.447 36.4658 107.783C37.1592 107.119 37.5059 106.181 37.5059 104.97C37.5059 103.789 37.1445 102.861 36.4219 102.187C35.6992 101.513 34.7031 101.177 33.4336 101.177H28.9219ZM28.9219 111.43V119.56H25.6406V98.4226H33.8291C35.9971 98.4226 37.7158 99.0085 38.9854 100.18C40.2549 101.343 40.8896 102.91 40.8896 104.883C40.8896 106.318 40.5234 107.578 39.791 108.662C39.0684 109.736 38.0674 110.488 36.7881 110.918L41.5195 119.56H37.7402L33.4336 111.43H28.9219ZM56.9004 104.15V119.56H53.8682V116.953H53.7949C52.9062 118.877 51.3145 119.839 49.0195 119.839C47.3398 119.839 46.0166 119.331 45.0498 118.315C44.0928 117.29 43.6143 115.893 43.6143 114.126V104.15H46.7783V113.51C46.7783 114.692 47.0566 115.591 47.6133 116.206C48.1699 116.811 48.9902 117.114 50.0742 117.114C51.207 117.114 52.1006 116.753 52.7549 116.03C53.4092 115.307 53.7363 114.341 53.7363 113.13V104.15H56.9004ZM59.7568 108.515C59.7568 107.138 60.3135 106.02 61.4268 105.161C62.54 104.302 63.9951 103.872 65.792 103.872C67.501 103.872 68.9023 104.306 69.9961 105.176C71.0996 106.035 71.6758 107.153 71.7246 108.53H68.751C68.6729 107.827 68.3652 107.275 67.8281 106.875C67.291 106.474 66.583 106.274 65.7041 106.274C64.8447 106.274 64.1514 106.465 63.624 106.845C63.1064 107.226 62.8477 107.719 62.8477 108.325C62.8477 109.262 63.6338 109.927 65.2061 110.317L67.7988 110.918C69.3516 111.289 70.4502 111.797 71.0947 112.441C71.749 113.076 72.0762 113.965 72.0762 115.107C72.0762 116.513 71.4805 117.656 70.2891 118.535C69.1074 119.414 67.5693 119.853 65.6748 119.853C63.8682 119.853 62.3936 119.424 61.251 118.564C60.1182 117.705 59.4883 116.562 59.3613 115.136H62.4961C62.623 115.879 62.9697 116.45 63.5361 116.85C64.1025 117.241 64.8643 117.436 65.8213 117.436C66.7686 117.436 67.5156 117.256 68.0625 116.894C68.6191 116.523 68.8975 116.025 68.8975 115.4C68.8975 114.902 68.7314 114.507 68.3994 114.214C68.0674 113.921 67.501 113.672 66.7002 113.467L63.9463 112.793C61.1533 112.119 59.7568 110.693 59.7568 108.515ZM74.2588 108.515C74.2588 107.138 74.8154 106.02 75.9287 105.161C77.042 104.302 78.4971 103.872 80.2939 103.872C82.0029 103.872 83.4043 104.306 84.498 105.176C85.6016 106.035 86.1777 107.153 86.2266 108.53H83.2529C83.1748 107.827 82.8672 107.275 82.3301 106.875C81.793 106.474 81.085 106.274 80.2061 106.274C79.3467 106.274 78.6533 106.465 78.126 106.845C77.6084 107.226 77.3496 107.719 77.3496 108.325C77.3496 109.262 78.1357 109.927 79.708 110.317L82.3008 110.918C83.8535 111.289 84.9521 111.797 85.5967 112.441C86.251 113.076 86.5781 113.965 86.5781 115.107C86.5781 116.513 85.9824 117.656 84.791 118.535C83.6094 119.414 82.0713 119.853 80.1768 119.853C78.3701 119.853 76.8955 119.424 75.7529 118.564C74.6201 117.705 73.9902 116.562 73.8633 115.136H76.998C77.125 115.879 77.4717 116.45 78.0381 116.85C78.6045 117.241 79.3662 117.436 80.3232 117.436C81.2705 117.436 82.0176 117.256 82.5645 116.894C83.1211 116.523 83.3994 116.025 83.3994 115.4C83.3994 114.902 83.2334 114.507 82.9014 114.214C82.5693 113.921 82.0029 113.672 81.2021 113.467L78.4482 112.793C75.6553 112.119 74.2588 110.693 74.2588 108.515ZM89.1416 119.56V104.15H92.3057V119.56H89.1416ZM92.0273 101.367C91.666 101.719 91.2314 101.894 90.7236 101.894C90.2158 101.894 89.7812 101.719 89.4199 101.367C89.0684 101.015 88.8926 100.591 88.8926 100.093C88.8926 99.5847 89.0684 99.155 89.4199 98.8035C89.7812 98.4519 90.2158 98.2761 90.7236 98.2761C91.2412 98.2761 91.6758 98.4519 92.0273 98.8035C92.3887 99.155 92.5693 99.5847 92.5693 100.093C92.5693 100.591 92.3887 101.015 92.0273 101.367ZM95.2646 108.515C95.2646 107.138 95.8213 106.02 96.9346 105.161C98.0479 104.302 99.5029 103.872 101.3 103.872C103.009 103.872 104.41 104.306 105.504 105.176C106.607 106.035 107.184 107.153 107.232 108.53H104.259C104.181 107.827 103.873 107.275 103.336 106.875C102.799 106.474 102.091 106.274 101.212 106.274C100.353 106.274 99.6592 106.465 99.1318 106.845C98.6143 107.226 98.3555 107.719 98.3555 108.325C98.3555 109.262 99.1416 109.927 100.714 110.317L103.307 110.918C104.859 111.289 105.958 111.797 106.603 112.441C107.257 113.076 107.584 113.965 107.584 115.107C107.584 116.513 106.988 117.656 105.797 118.535C104.615 119.414 103.077 119.853 101.183 119.853C99.376 119.853 97.9014 119.424 96.7588 118.564C95.626 117.705 94.9961 116.562 94.8691 115.136H98.0039C98.1309 115.879 98.4775 116.45 99.0439 116.85C99.6104 117.241 100.372 117.436 101.329 117.436C102.276 117.436 103.023 117.256 103.57 116.894C104.127 116.523 104.405 116.025 104.405 115.4C104.405 114.902 104.239 114.507 103.907 114.214C103.575 113.921 103.009 113.672 102.208 113.467L99.4541 112.793C96.6611 112.119 95.2646 110.693 95.2646 108.515ZM123.272 109.453H120.255C120.089 108.584 119.688 107.876 119.054 107.329C118.429 106.782 117.623 106.509 116.637 106.509C115.406 106.509 114.42 106.992 113.678 107.959C112.945 108.916 112.579 110.215 112.579 111.855C112.579 113.525 112.945 114.834 113.678 115.781C114.42 116.728 115.416 117.202 116.666 117.202C117.633 117.202 118.424 116.953 119.039 116.455C119.664 115.947 120.069 115.244 120.255 114.345H123.302C123.136 115.996 122.442 117.329 121.222 118.344C120.011 119.35 118.482 119.853 116.637 119.853C114.42 119.853 112.652 119.14 111.334 117.715C110.016 116.279 109.356 114.326 109.356 111.855C109.356 109.414 110.016 107.475 111.334 106.04C112.652 104.594 114.41 103.872 116.607 103.872C118.521 103.872 120.074 104.409 121.266 105.483C122.457 106.548 123.126 107.871 123.272 109.453ZM125.66 119.56V98.4226H128.795V106.728H128.868C129.298 105.82 129.928 105.122 130.758 104.634C131.588 104.135 132.584 103.886 133.746 103.886C135.426 103.886 136.744 104.404 137.701 105.439C138.668 106.474 139.151 107.871 139.151 109.629V119.56H135.973V110.244C135.973 109.092 135.685 108.198 135.108 107.563C134.542 106.928 133.707 106.611 132.604 106.611C131.441 106.611 130.519 106.982 129.835 107.724C129.161 108.457 128.824 109.433 128.824 110.654V119.56H125.66Z" fill="#F5F7FB"/>
<path d="M54.1904 142.125H55.7812C55.8574 142.811 56.1914 143.362 56.7832 143.778C57.3809 144.194 58.1338 144.402 59.042 144.402C59.8975 144.402 60.6035 144.199 61.1602 143.795C61.7227 143.385 62.0039 142.869 62.0039 142.248C62.0039 141.715 61.8076 141.276 61.415 140.93C61.0283 140.584 60.4072 140.3 59.5518 140.077L57.9258 139.656C56.7539 139.357 55.8984 138.941 55.3594 138.407C54.8203 137.868 54.5508 137.168 54.5508 136.307C54.5508 135.252 54.9668 134.391 55.7988 133.723C56.6367 133.055 57.7148 132.721 59.0332 132.721C60.293 132.721 61.3359 133.061 62.1621 133.74C62.9883 134.414 63.4189 135.281 63.4541 136.342H61.8721C61.8018 135.662 61.5088 135.126 60.9932 134.734C60.4775 134.341 59.8066 134.145 58.9805 134.145C58.1602 134.145 57.4893 134.338 56.9678 134.725C56.4521 135.112 56.1943 135.615 56.1943 136.237C56.1943 136.717 56.3818 137.113 56.7568 137.423C57.1377 137.728 57.7588 137.991 58.6201 138.214L59.9473 138.566C61.2598 138.894 62.2031 139.33 62.7773 139.875C63.3516 140.42 63.6387 141.147 63.6387 142.055C63.6387 143.215 63.2109 144.135 62.3555 144.815C61.5059 145.489 60.3516 145.825 58.8926 145.825C57.5449 145.825 56.4434 145.489 55.5879 144.815C54.7324 144.141 54.2666 143.244 54.1904 142.125ZM68.9121 137.643C68.2031 137.643 67.6143 137.889 67.1455 138.381C66.6826 138.867 66.4277 139.494 66.3809 140.262H71.3467C71.3291 139.489 71.0977 138.859 70.6523 138.372C70.207 137.886 69.627 137.643 68.9121 137.643ZM71.3115 142.995H72.8145C72.6797 143.804 72.2578 144.469 71.5488 144.99C70.8457 145.512 69.999 145.773 69.0088 145.773C67.7021 145.773 66.6738 145.351 65.9238 144.507C65.1738 143.663 64.7988 142.521 64.7988 141.079C64.7988 139.65 65.1738 138.498 65.9238 137.625C66.6797 136.752 67.6846 136.316 68.9385 136.316C70.1689 136.316 71.1416 136.729 71.8564 137.555C72.5713 138.381 72.9287 139.489 72.9287 140.877V141.457H66.3721V141.545C66.3721 142.424 66.6123 143.127 67.0928 143.655C67.5732 144.182 68.2236 144.446 69.0439 144.446C69.6182 144.446 70.1074 144.314 70.5117 144.05C70.916 143.786 71.1826 143.435 71.3115 142.995ZM74.5547 145.615V132.932H76.084V137.933H76.1191C76.377 137.417 76.752 137.019 77.2441 136.738C77.7422 136.456 78.334 136.316 79.0195 136.316C80.0156 136.316 80.8008 136.623 81.375 137.239C81.9492 137.854 82.2363 138.677 82.2363 139.708V145.615H80.707V139.99C80.707 139.251 80.5225 138.68 80.1533 138.276C79.79 137.871 79.2539 137.669 78.5449 137.669C77.7891 137.669 77.1885 137.906 76.7432 138.381C76.3037 138.856 76.084 139.491 76.084 140.288V145.615H74.5547ZM84.1787 145.615V136.474H85.6201V137.968H85.6553C85.8076 137.458 86.0801 137.057 86.4727 136.764C86.8711 136.465 87.3369 136.316 87.8701 136.316C87.9932 136.316 88.1982 136.336 88.4854 136.377V137.863C88.3213 137.804 88.0488 137.775 87.668 137.775C87.0762 137.775 86.6016 137.971 86.2441 138.364C85.8867 138.756 85.708 139.275 85.708 139.919V145.615H84.1787ZM104.358 140.367C104.358 142.084 103.884 143.423 102.935 144.384C101.991 145.345 100.673 145.825 98.9795 145.825C97.21 145.825 95.7979 145.228 94.7432 144.032C93.6943 142.831 93.1699 141.223 93.1699 139.207C93.1699 137.227 93.6943 135.651 94.7432 134.479C95.792 133.307 97.2041 132.721 98.9795 132.721C100.351 132.721 101.517 133.099 102.478 133.855C103.444 134.605 104.045 135.61 104.279 136.869H102.618C102.354 136.014 101.903 135.352 101.265 134.883C100.632 134.414 99.8701 134.18 98.9795 134.18C97.6729 134.18 96.6475 134.625 95.9033 135.516C95.165 136.401 94.7959 137.628 94.7959 139.198C94.7959 140.792 95.1709 142.052 95.9209 142.978C96.6709 143.904 97.6904 144.366 98.9795 144.366C100.104 144.366 101.019 144.035 101.722 143.373C102.425 142.705 102.776 141.841 102.776 140.781V140.552H99.1992V139.163H104.358V140.367ZM113.657 136.474V145.615H112.207V144.129H112.172C111.604 145.225 110.637 145.773 109.271 145.773C108.281 145.773 107.505 145.474 106.942 144.876C106.386 144.273 106.107 143.449 106.107 142.406V136.474H107.637V142.134C107.637 143.657 108.34 144.419 109.746 144.419C110.484 144.419 111.064 144.188 111.486 143.725C111.914 143.256 112.128 142.629 112.128 141.844V136.474H113.657ZM116.136 134.268H117.665V136.474H119.44V137.731H117.665V143.162C117.665 143.578 117.756 143.886 117.938 144.085C118.119 144.279 118.406 144.375 118.799 144.375C119.045 144.375 119.256 144.361 119.432 144.331V145.615C119.232 145.661 118.91 145.685 118.465 145.685C117.627 145.685 117.029 145.497 116.672 145.122C116.314 144.747 116.136 144.12 116.136 143.241V137.731H114.773V136.474H116.136V134.268Z" fill="#F5F7FB"/>
</svg>
