<svg width="70" height="70" viewBox="0 0 70 70" fill="none" xmlns="http://www.w3.org/2000/svg">
<path d="M69.475 0H0.525C0.23505 0 0 0.23505 0 0.525V69.475C0 69.7649 0.23505 70 0.525 70H69.475C69.7649 70 70 69.7649 70 69.475V0.525C70 0.23505 69.7649 0 69.475 0Z" fill="#313B57"/>
<path d="M10.4498 14.2744C10.9407 14.3256 11.3147 14.4683 11.5717 14.7025C11.8286 14.933 11.9571 15.2459 11.9571 15.6411V16.7662C11.9571 17.154 12.0319 17.4285 12.1815 17.5895C12.3349 17.7541 12.5938 17.8364 12.9582 17.8364H13.2113V19H12.7856C11.9341 19 11.3166 18.8353 10.9331 18.506C10.5495 18.1767 10.3577 17.6498 10.3577 16.9254V16.0692C10.3577 15.6667 10.2542 15.3813 10.0471 15.213C9.83996 15.041 9.49093 14.9532 9 14.9495V13.4237C9.49093 13.4201 9.83996 13.3341 10.0471 13.1658C10.2542 12.9938 10.3577 12.7065 10.3577 12.3041V11.4259C10.3577 10.7087 10.5495 10.1892 10.9331 9.86718C11.3166 9.54153 11.9341 9.3787 12.7856 9.3787H13.2113V10.5423H12.9582C12.5938 10.5423 12.3349 10.6246 12.1815 10.7892C12.0319 10.9502 11.9571 11.2247 11.9571 11.6125V12.7322C11.9571 13.1273 11.8286 13.442 11.5717 13.6762C11.3147 13.9067 10.9407 14.0476 10.4498 14.0988V14.2744Z" fill="white"/>
<path d="M19.5052 13.6048H17.9461C17.8963 13.2865 17.7639 13.0304 17.5492 12.8364C17.3382 12.6425 17.064 12.5456 16.7265 12.5456C16.3084 12.5456 15.9786 12.7065 15.7369 13.0285C15.4991 13.3469 15.3802 13.7878 15.3802 14.3513C15.3802 14.9257 15.4991 15.3721 15.7369 15.6904C15.9786 16.0088 16.3103 16.1679 16.7322 16.1679C17.0659 16.1679 17.3382 16.0783 17.5492 15.899C17.7601 15.7161 17.8924 15.4636 17.9461 15.1416H19.511C19.4688 15.8368 19.1946 16.3911 18.6883 16.8046C18.182 17.2181 17.5242 17.4248 16.715 17.4248C15.7791 17.4248 15.0389 17.1522 14.4942 16.607C13.9496 16.0582 13.6773 15.3063 13.6773 14.3513C13.6773 13.4109 13.9496 12.6663 14.4942 12.1175C15.0427 11.5649 15.7791 11.2887 16.7035 11.2887C17.5242 11.2887 18.1858 11.5046 18.6883 11.9363C19.1946 12.3681 19.4669 12.9243 19.5052 13.6048Z" fill="white"/>
<path d="M20.2186 13.1438C20.2186 12.584 20.4545 12.1357 20.9263 11.7991C21.398 11.4588 22.0289 11.2887 22.819 11.2887C23.59 11.2887 24.2094 11.4607 24.6773 11.8046C25.1452 12.1486 25.3849 12.6059 25.3964 13.1767H23.8488C23.8297 12.9389 23.7261 12.7523 23.5382 12.6169C23.3541 12.4815 23.1067 12.4138 22.796 12.4138C22.5045 12.4138 22.2706 12.4724 22.0941 12.5895C21.9215 12.7029 21.8353 12.8547 21.8353 13.045C21.8353 13.3304 22.1037 13.5335 22.6407 13.6542L23.8201 13.8957C24.4376 14.0274 24.8806 14.2195 25.1491 14.472C25.4214 14.7208 25.5575 15.0648 25.5575 15.5038C25.5575 16.082 25.3044 16.5467 24.7981 16.8979C24.2918 17.2492 23.6302 17.4248 22.8133 17.4248C22.0002 17.4248 21.3501 17.2528 20.863 16.9089C20.3759 16.5649 20.1093 16.1021 20.0633 15.5203H21.7029C21.7451 15.7691 21.864 15.9612 22.0596 16.0966C22.2591 16.232 22.5256 16.2997 22.8593 16.2997C23.1777 16.2997 23.427 16.2448 23.6072 16.135C23.7913 16.0216 23.8834 15.8679 23.8834 15.674C23.8834 15.524 23.8258 15.405 23.7108 15.3172C23.5957 15.2258 23.4001 15.1489 23.124 15.0867L21.9848 14.8452C20.8074 14.5891 20.2186 14.022 20.2186 13.1438Z" fill="white"/>
<path d="M26.2939 13.1438C26.2939 12.584 26.5298 12.1357 27.0016 11.7991C27.4733 11.4588 28.1043 11.2887 28.8944 11.2887C29.6653 11.2887 30.2847 11.4607 30.7526 11.8046C31.2205 12.1486 31.4603 12.6059 31.4718 13.1767H29.9242C29.905 12.9389 29.8014 12.7523 29.6135 12.6169C29.4294 12.4815 29.182 12.4138 28.8713 12.4138C28.5798 12.4138 28.3459 12.4724 28.1695 12.5895C27.9969 12.7029 27.9106 12.8547 27.9106 13.045C27.9106 13.3304 28.179 13.5335 28.716 13.6542L29.8954 13.8957C30.5129 14.0274 30.9559 14.2195 31.2244 14.472C31.4967 14.7208 31.6328 15.0648 31.6328 15.5038C31.6328 16.082 31.3797 16.5467 30.8734 16.8979C30.3672 17.2492 29.7055 17.4248 28.8886 17.4248C28.0755 17.4248 27.4254 17.2528 26.9383 16.9089C26.4512 16.5649 26.1846 16.1021 26.1386 15.5203H27.7782C27.8204 15.7691 27.9393 15.9612 28.1349 16.0966C28.3344 16.232 28.6009 16.2997 28.9346 16.2997C29.253 16.2997 29.5023 16.2448 29.6825 16.135C29.8666 16.0216 29.9587 15.8679 29.9587 15.674C29.9587 15.524 29.9012 15.405 29.7861 15.3172C29.671 15.2258 29.4754 15.1489 29.1993 15.0867L28.0601 14.8452C26.8827 14.5891 26.2939 14.022 26.2939 13.1438Z" fill="white"/>
<path d="M36.5058 12.6828L35.1768 11.7991L35.3206 13.3359H34.2735L34.4174 11.7991L33.0826 12.6883L32.5649 11.8046L34.0146 11.1734L32.5649 10.5313L33.0826 9.65313L34.4059 10.5203L34.2735 9H35.3264L35.1883 10.5148L36.5058 9.64764L37.035 10.5313L35.568 11.1734L37.035 11.8046L36.5058 12.6828Z" fill="white"/>
<path d="M40.5502 14.2744V14.0988C40.0593 14.0476 39.6853 13.9067 39.4283 13.6762C39.1714 13.442 39.0429 13.1273 39.0429 12.7322V11.6125C39.0429 11.2247 38.9662 10.9502 38.8128 10.7892C38.6632 10.6246 38.4062 10.5423 38.0418 10.5423H37.7887V9.3787H38.2144C39.0697 9.3787 39.6892 9.54153 40.0727 9.86718C40.4562 10.1892 40.648 10.7087 40.648 11.4259V12.3041C40.648 12.7065 40.7497 12.9938 40.9529 13.1658C41.16 13.3341 41.5091 13.4201 42 13.4237V14.9495C41.5052 14.9532 41.1562 15.0392 40.9529 15.2075C40.7497 15.3758 40.648 15.6612 40.648 16.0637V16.9034C40.648 17.6352 40.4543 18.1676 40.0669 18.5005C39.6834 18.8335 39.0659 19 38.2144 19H37.7887V17.8364H38.0418C38.4024 17.8364 38.6593 17.7541 38.8128 17.5895C38.9662 17.4285 39.0429 17.1559 39.0429 16.7717V15.6465C39.0429 15.2477 39.1714 14.933 39.4283 14.7025C39.6892 14.4683 40.0631 14.3256 40.5502 14.2744Z" fill="white"/>
<path d="M46.2139 48.375C45.6127 48.6512 44.9539 49.0112 43.6352 49.735C43.1352 50.0162 42.6127 50.2975 42.1264 50.5625C42.0927 50.5287 42.0577 50.4862 42.0239 50.4512C39.4152 47.6637 34.5902 45.695 34.7952 41.9512C34.8714 40.5875 35.3402 37.0075 44.0614 32.66C51.2389 29.1225 56.9502 30.1025 57.9364 32.2762C59.3539 35.375 54.8752 41.1412 47.4627 41.9775C46.6423 42.1439 45.795 42.1238 44.9834 41.9187C44.1718 41.7136 43.4167 41.3287 42.7739 40.7925C42.3814 40.3662 42.3227 40.3412 42.1777 40.4262C41.9389 40.5512 42.0927 40.9375 42.1777 41.1587C42.4604 41.6707 42.8429 42.1207 43.3026 42.4823C43.7623 42.8438 44.2898 43.1095 44.8539 43.2637C47.7709 43.8942 50.8123 43.593 53.5489 42.4025C58.0414 40.6637 61.5489 35.83 60.5214 31.7775C59.4902 27.6687 52.6702 26.3137 46.2177 28.6062C42.1768 29.968 38.4433 32.1116 35.2302 34.915C31.6752 38.24 31.1127 41.13 31.3427 42.34C32.1702 46.6362 38.0927 49.4325 40.4677 51.5037C40.3427 51.5725 40.2377 51.6287 40.1439 51.6825C38.9589 52.2712 34.4414 54.6325 33.3152 57.13C32.0364 59.96 33.5202 61.9887 34.5002 62.2612C35.977 62.615 37.5275 62.4987 38.9351 61.9286C40.3426 61.3585 41.537 60.363 42.3514 59.0812C43.043 58.0183 43.4677 56.8041 43.5893 55.5419C43.711 54.2796 43.526 53.0067 43.0502 51.8312C43.3309 51.6073 43.6303 51.4078 43.9452 51.235C44.5502 50.8775 45.1264 50.525 45.6377 50.2525C47.3881 49.4325 49.2984 49.0104 51.2314 49.0162C55.2889 49.4937 56.0902 52.025 55.9364 53.0912C55.8645 53.4695 55.7124 53.828 55.4903 54.1426C55.2682 54.4572 54.9813 54.7206 54.6489 54.915C54.3677 55.0937 54.2739 55.1537 54.2989 55.2812C54.3327 55.4687 54.4689 55.46 54.7077 55.4262C55.3173 55.2336 55.8544 54.861 56.2483 54.3575C56.6423 53.854 56.8748 53.243 56.9152 52.605C57.0402 50.105 54.6564 47.3625 50.4364 47.3875C49.1728 47.3896 47.9218 47.6389 46.7539 48.1212C46.5664 48.1987 46.3843 48.2821 46.2077 48.3712L46.2139 48.375ZM40.1827 58.1737C38.8352 59.64 36.9602 60.1937 36.1502 59.725C35.2752 59.225 35.6214 57.0562 37.2752 55.505C38.2546 54.6225 39.3132 53.8321 40.4377 53.1437C40.6339 53.0187 40.9239 52.8537 41.2727 52.6437L41.3664 52.5925L41.5714 52.4675C41.8664 53.4564 41.8932 54.5059 41.6492 55.5085C41.4052 56.5112 40.899 57.431 40.1827 58.1737Z" fill="white"/>
</svg>
